<svg width="50" height="50" viewBox="0 0 50 50" fill="none" xmlns="http://www.w3.org/2000/svg">
<path d="M6.24743 45.8339H14.5808C14.8549 45.8354 15.1267 45.7829 15.3806 45.6792C15.6344 45.5755 15.8653 45.4228 16.0599 45.2297L41.0599 20.2297C41.2552 20.036 41.4102 19.8056 41.516 19.5517C41.6217 19.2979 41.6762 19.0256 41.6762 18.7505C41.6762 18.4755 41.6217 18.2032 41.516 17.9493C41.4102 17.6955 41.2552 17.465 41.0599 17.2714L32.7266 8.93802C32.5329 8.74276 32.3025 8.58777 32.0486 8.482C31.7948 8.37623 31.5225 8.32178 31.2474 8.32178C30.9724 8.32178 30.7001 8.37623 30.4462 8.482C30.1924 8.58777 29.9619 8.74276 29.7683 8.93802L4.76826 33.938C4.57518 34.1327 4.42242 34.3636 4.31874 34.6174C4.21506 34.8712 4.16251 35.143 4.1641 35.4172V43.7505C4.1641 44.3031 4.38359 44.833 4.77429 45.2237C5.16499 45.6144 5.6949 45.8339 6.24743 45.8339ZM8.33076 36.2714L31.2474 13.3547L36.6433 18.7505L13.7266 41.6672H8.33076V36.2714Z" fill="#464255"/>
<path d="M36.8991 4.77089C36.7049 4.57665 36.4743 4.42256 36.2205 4.31744C35.9667 4.21231 35.6947 4.1582 35.42 4.1582C34.8652 4.1582 34.3331 4.37859 33.9408 4.77089C33.5485 5.16319 33.3281 5.69527 33.3281 6.25006C33.3281 6.80486 33.5485 7.33693 33.9408 7.72923L42.2741 16.0626C42.4678 16.2578 42.6982 16.4128 42.9521 16.5186C43.206 16.6244 43.4783 16.6788 43.7533 16.6788C44.0283 16.6788 44.3006 16.6244 44.5545 16.5186C44.8084 16.4128 45.0388 16.2578 45.2325 16.0626C45.4277 15.8689 45.5827 15.6385 45.6885 15.3846C45.7943 15.1307 45.8487 14.8584 45.8487 14.5834C45.8487 14.3084 45.7943 14.0361 45.6885 13.7822C45.5827 13.5283 45.4277 13.2979 45.2325 13.1042L36.8991 4.77089Z" fill="#464255"/>
</svg>
