<svg width="50" height="50" viewBox="0 0 50 50" fill="none" xmlns="http://www.w3.org/2000/svg">
<path d="M25.0026 2.0835C20.4701 2.0835 16.0394 3.42753 12.2708 5.94565C8.50217 8.46377 5.56488 12.0429 3.83038 16.2303C2.09587 20.4178 1.64204 25.0256 2.52629 29.471C3.41053 33.9164 5.59313 37.9997 8.79809 41.2047C12.003 44.4096 16.0864 46.5922 20.5318 47.4765C24.9772 48.3607 29.585 47.9069 33.7724 46.1724C37.9599 44.4379 41.539 41.5006 44.0571 37.732C46.5752 33.9634 47.9193 29.5326 47.9193 25.0002C47.9121 18.9245 45.4954 13.0997 41.1992 8.80355C36.9031 4.50739 31.0783 2.09066 25.0026 2.0835ZM25.0026 43.7502C21.2942 43.7502 17.6691 42.6505 14.5857 40.5902C11.5023 38.5299 9.09902 35.6016 7.67987 32.1755C6.26073 28.7494 5.88942 24.9794 6.61289 21.3422C7.33636 17.7051 9.12213 14.3641 11.7444 11.7419C14.3666 9.11968 17.7075 7.33391 21.3447 6.61044C24.9818 5.88697 28.7518 6.25828 32.1779 7.67742C35.604 9.09656 38.5324 11.4998 40.5927 14.5832C42.653 17.6666 43.7526 21.2918 43.7526 25.0002C43.7466 29.9711 41.7692 34.7367 38.2542 38.2517C34.7392 41.7667 29.9736 43.7441 25.0026 43.7502Z" fill="#464255"/>
<path d="M33.3359 22.9168H27.0859V16.6668C27.0859 16.1143 26.8664 15.5844 26.4757 15.1937C26.085 14.803 25.5551 14.5835 25.0026 14.5835C24.4501 14.5835 23.9202 14.803 23.5295 15.1937C23.1388 15.5844 22.9193 16.1143 22.9193 16.6668V22.9168H16.6693C16.1167 22.9168 15.5868 23.1363 15.1961 23.527C14.8054 23.9177 14.5859 24.4476 14.5859 25.0002C14.5859 25.5527 14.8054 26.0826 15.1961 26.4733C15.5868 26.864 16.1167 27.0835 16.6693 27.0835H22.9193V33.3335C22.9193 33.886 23.1388 34.4159 23.5295 34.8066C23.9202 35.1973 24.4501 35.4168 25.0026 35.4168C25.5551 35.4168 26.085 35.1973 26.4757 34.8066C26.8664 34.4159 27.0859 33.886 27.0859 33.3335V27.0835H33.3359C33.8885 27.0835 34.4184 26.864 34.8091 26.4733C35.1998 26.0826 35.4193 25.5527 35.4193 25.0002C35.4193 24.4476 35.1998 23.9177 34.8091 23.527C34.4184 23.1363 33.8885 22.9168 33.3359 22.9168Z" fill="#464255"/>
</svg>
