<svg width="50" height="50" viewBox="0 0 50 50" fill="none" xmlns="http://www.w3.org/2000/svg">
<path d="M36.3954 23.5267C36.1964 23.7189 36.0377 23.9488 35.9285 24.2029C35.8193 24.4571 35.7619 24.7305 35.7595 25.0071C35.7571 25.2837 35.8098 25.5581 35.9145 25.8141C36.0193 26.0701 36.174 26.3027 36.3696 26.4984C36.5652 26.694 36.7978 26.8487 37.0538 26.9534C37.3099 27.0582 37.5842 27.1109 37.8608 27.1085C38.1374 27.1061 38.4108 27.0486 38.665 26.9394C38.9192 26.8302 39.149 26.6715 39.3412 26.4725L42.5579 23.2559C44.6155 21.1506 45.76 18.3189 45.7431 15.3751C45.7263 12.4314 44.5494 9.61297 42.4678 7.53138C40.3862 5.4498 37.5678 4.27291 34.6241 4.25604C31.6803 4.23918 28.8486 5.38369 26.7433 7.44129L23.5266 10.658C23.3277 10.8501 23.1689 11.08 23.0598 11.3342C22.9506 11.5884 22.8931 11.8617 22.8907 12.1384C22.8883 12.415 22.941 12.6893 23.0458 12.9454C23.1505 13.2014 23.3052 13.434 23.5008 13.6296C23.6964 13.8252 23.929 13.9799 24.1851 14.0847C24.4411 14.1894 24.7154 14.2421 24.9921 14.2397C25.2687 14.2373 25.5421 14.1799 25.7962 14.0707C26.0504 13.9615 26.2803 13.8028 26.4725 13.6038L29.6891 10.3871C30.3394 9.72971 31.1132 9.20731 31.966 8.84995C32.8188 8.49259 33.7339 8.30733 34.6586 8.3048C35.5832 8.30227 36.4993 8.48253 37.354 8.83522C38.2088 9.1879 38.9854 9.70606 39.6393 10.3599C40.2931 11.0137 40.8113 11.7904 41.164 12.6451C41.5167 13.4999 41.6969 14.416 41.6944 15.3406C41.6919 16.2653 41.5066 17.1803 41.1492 18.0332C40.7919 18.886 40.2695 19.6598 39.6121 20.31L36.3954 23.5267Z" fill="#464255"/>
<path d="M13.6057 26.4725C13.8047 26.2803 13.9634 26.0504 14.0726 25.7962C14.1818 25.5421 14.2393 25.2687 14.2417 24.9921C14.2441 24.7154 14.1914 24.4411 14.0866 24.1851C13.9819 23.929 13.8272 23.6964 13.6316 23.5008C13.436 23.3052 13.2033 23.1505 12.9473 23.0458C12.6913 22.941 12.4169 22.8883 12.1403 22.8907C11.8637 22.8931 11.5903 22.9506 11.3361 23.0598C11.082 23.1689 10.8521 23.3277 10.6599 23.5266L7.44324 26.7433C5.38564 28.8486 4.24113 31.6803 4.258 34.6241C4.27486 37.5678 5.45175 40.3862 7.53333 42.4678C9.61492 44.5494 12.4333 45.7263 15.3771 45.7431C18.3208 45.76 21.1525 44.6155 23.2578 42.5579L26.4745 39.3412C26.854 38.9483 27.064 38.4221 27.0592 37.8758C27.0545 37.3296 26.8354 36.807 26.4491 36.4208C26.0628 36.0345 25.5403 35.8154 24.9941 35.8107C24.4478 35.8059 23.9216 36.0159 23.5287 36.3954L20.312 39.6121C18.9937 40.916 17.2128 41.6452 15.3585 41.6401C13.5042 41.635 11.7273 40.8962 10.4161 39.585C9.10497 38.2738 8.36611 36.4969 8.36104 34.6427C8.35596 32.7884 9.08509 31.0075 10.3891 29.6891L13.6057 26.4725Z" fill="#464255"/>
<path d="M17.0918 32.9165C17.4824 33.307 18.0122 33.5264 18.5647 33.5264C19.1171 33.5264 19.6469 33.307 20.0376 32.9165L32.9147 20.0394C33.1137 19.8472 33.2724 19.6173 33.3816 19.3631C33.4907 19.109 33.5482 18.8356 33.5506 18.559C33.553 18.2823 33.5003 18.008 33.3956 17.752C33.2908 17.4959 33.1361 17.2633 32.9405 17.0677C32.7449 16.8721 32.5123 16.7174 32.2562 16.6127C32.0002 16.5079 31.7259 16.4552 31.4493 16.4576C31.1726 16.46 30.8993 16.5175 30.6451 16.6267C30.3909 16.7358 30.161 16.8946 29.9688 17.0935L17.0918 29.9602C16.8968 30.1538 16.7421 30.3841 16.6365 30.6378C16.5309 30.8915 16.4766 31.1635 16.4766 31.4383C16.4766 31.7131 16.5309 31.9852 16.6365 32.2388C16.7421 32.4925 16.8968 32.7228 17.0918 32.9165Z" fill="#464255"/>
</svg>
