<svg width="29" height="26" viewBox="0 0 29 26" fill="none" xmlns="http://www.w3.org/2000/svg">
<path d="M7.80706 11.4603H4.62945C4.47733 11.4603 4.35226 11.3474 4.35226 11.2038C4.35226 11.0602 4.47733 10.9474 4.62945 10.9474H7.31014L4.57537 6.90249C4.49423 6.78282 4.5348 6.62553 4.66326 6.55031C4.79171 6.47509 4.96412 6.5127 5.04525 6.63237L8.04369 11.067C8.09778 11.1457 8.10116 11.2448 8.05045 11.3269C7.99975 11.409 7.90848 11.4603 7.80706 11.4603ZM3.15896 11.4603H0.870406C0.768993 11.4603 0.677721 11.409 0.630395 11.3303C0.583069 11.2483 0.583069 11.1491 0.637156 11.0705L4.10548 5.93828C4.18661 5.81861 4.35564 5.781 4.48747 5.85622C4.61593 5.93144 4.6565 6.08872 4.57537 6.20839L1.36733 10.9474H3.15896C3.31108 10.9474 3.43616 11.0602 3.43616 11.2038C3.43616 11.3474 3.31108 11.4603 3.15896 11.4603Z" fill="#73BBFF"/>
<path d="M2.60547 16.5923C2.58519 16.5923 2.56491 16.5889 2.54463 16.5855C2.44997 16.5649 2.37222 16.5 2.3418 16.4145L0.607636 11.2789C0.563691 11.1455 0.644821 11.0019 0.79018 10.9575C0.935539 10.9165 1.09104 10.9917 1.13498 11.125L2.72717 15.8401L4.4681 14.1237C4.57289 14.0211 4.74529 14.0142 4.86023 14.1134C4.97178 14.2091 4.97854 14.3698 4.87375 14.4758L2.8083 16.5137C2.75421 16.5649 2.67984 16.5923 2.60547 16.5923ZM5.67491 13.5629C5.6073 13.5629 5.53969 13.539 5.48561 13.4945C5.37405 13.3988 5.36729 13.2381 5.47209 13.1321L7.16907 11.4601H2.09165C1.93953 11.4601 1.81445 11.3473 1.81445 11.2037C1.81445 11.0601 1.93953 10.9472 2.09165 10.9472H7.80797C7.91952 10.9472 8.01755 11.0088 8.0615 11.1011C8.10545 11.1934 8.08516 11.3028 8.01079 11.3781L5.87774 13.4808C5.82365 13.5356 5.74928 13.5629 5.67491 13.5629Z" fill="#73BBFF"/>
<path d="M7.8079 11.4599C7.71325 11.4599 7.62535 11.4155 7.57465 11.3402L4.10632 6.20463C4.02857 6.08838 4.06237 5.94136 4.18069 5.86271L5.59033 4.93612C5.71541 4.85406 5.88781 4.88141 5.9757 4.99766C6.06359 5.11391 6.03655 5.2712 5.91147 5.35326L4.7148 6.13967L7.67268 10.5128L7.9634 9.07674C7.99044 8.93656 8.13918 8.84766 8.28454 8.87159C8.43328 8.89894 8.53469 9.03229 8.50427 9.16906L8.08171 11.2479C8.06143 11.3505 7.97354 11.4326 7.86198 11.4531C7.8417 11.4565 7.8248 11.4599 7.8079 11.4599ZM8.50089 8.04073C8.48398 8.04073 8.46708 8.04073 8.45018 8.03731C8.30144 8.00996 8.20003 7.87661 8.23045 7.73984L9.14655 3.22653L7.10815 4.56685C6.98307 4.64891 6.81067 4.62155 6.72278 4.5053C6.63489 4.38905 6.66193 4.23177 6.78701 4.14971L9.38318 2.44354C9.47445 2.38199 9.59615 2.38199 9.6908 2.4367C9.78545 2.4914 9.83278 2.5974 9.8125 2.69997L8.77132 7.83558C8.74766 7.95525 8.63272 8.04073 8.50089 8.04073Z" fill="#73BBFF"/>
<path d="M7.80876 18.3022C7.77834 18.3022 7.74792 18.2988 7.71749 18.2886L5.45936 17.5466C5.31738 17.4987 5.23963 17.3517 5.29034 17.2218C5.34105 17.0884 5.49993 17.0201 5.6419 17.0679L7.66341 17.7312L9.03924 15.0164L3.53589 16.3738L4.25593 16.6098C4.3979 16.6576 4.47565 16.8046 4.42495 16.9346C4.37424 17.0679 4.21536 17.1363 4.07338 17.0884L2.515 16.5756C2.40007 16.538 2.3257 16.4354 2.33246 16.326C2.33584 16.2131 2.42035 16.1174 2.53866 16.09L9.47532 14.3805C9.58011 14.3531 9.68829 14.3873 9.75928 14.4625C9.82689 14.5377 9.84379 14.6437 9.79646 14.736L8.0623 18.1552C8.01159 18.2475 7.91356 18.3022 7.80876 18.3022Z" fill="#73BBFF"/>
<path d="M7.91549 10.9343C7.89858 10.9343 7.88168 10.9343 7.86478 10.9309C7.71604 10.9036 7.61463 10.7702 7.64505 10.6335L9.27104 2.60522C9.29132 2.50948 9.36569 2.43426 9.46373 2.40691C9.56176 2.37955 9.66993 2.40691 9.74092 2.47871L10.7449 3.46685C10.8497 3.56943 10.8429 3.73013 10.7314 3.82587C10.6198 3.9216 10.4441 3.91818 10.3426 3.81561L9.7105 3.19332L8.25015 10.3873L12.6244 6.05859L11.3534 4.80717C11.2486 4.7046 11.2554 4.54389 11.3669 4.44816C11.4785 4.35242 11.6543 4.35584 11.7557 4.45842L13.2025 5.88421C13.3005 5.98337 13.3039 6.13381 13.2025 6.23297L8.622 10.7736C8.5172 10.8762 8.3448 10.8831 8.23325 10.7873C8.21635 10.7702 8.19944 10.7531 8.18592 10.736C8.1555 10.8523 8.04056 10.9343 7.91549 10.9343Z" fill="#73BBFF"/>
<path d="M2.60706 16.5925C2.51241 16.5925 2.42114 16.548 2.37043 16.4694C2.3062 16.3702 2.32311 16.2471 2.40424 16.1651L7.60673 11.0329C7.67096 10.9714 7.76223 10.944 7.85012 10.9543C7.94139 10.9679 8.01914 11.0226 8.05633 11.0979L9.79049 14.5205C9.8243 14.5888 9.8243 14.6675 9.79049 14.7359C9.75669 14.8043 9.68908 14.8555 9.61133 14.8761L5.28099 15.9428C5.13225 15.9804 4.98351 15.8984 4.94294 15.7616C4.90238 15.6249 4.99027 15.4847 5.13901 15.4505L9.15159 14.4623L7.7318 11.6586L3.46907 15.8608L3.71923 15.7992C3.86796 15.7616 4.0167 15.8437 4.05727 15.9804C4.09783 16.1172 4.00994 16.2574 3.8612 16.2916L2.67805 16.5822C2.65439 16.5891 2.63072 16.5925 2.60706 16.5925Z" fill="#73BBFF"/>
<path d="M11.2775 21.7219C11.2032 21.7219 11.1288 21.6946 11.0747 21.6399L7.60639 18.2207C7.52864 18.1455 7.50836 18.0326 7.55906 17.9369L8.14388 16.7846C8.20811 16.6581 8.37375 16.6034 8.51235 16.6615C8.65094 16.7197 8.70841 16.8735 8.64418 17L8.1405 17.995L10.7739 20.5936L9.45549 15.3999L9.26618 15.7691C9.20196 15.8956 9.03631 15.9504 8.89772 15.8922C8.75912 15.8341 8.70165 15.6802 8.76588 15.5537L9.28985 14.5177C9.34055 14.4186 9.44873 14.3639 9.56704 14.3707C9.68536 14.3809 9.78001 14.4596 9.80705 14.5656L11.5412 21.4039C11.5683 21.5168 11.5142 21.633 11.4026 21.6877C11.3688 21.7117 11.3215 21.7219 11.2775 21.7219Z" fill="#73BBFF"/>
<path d="M9.54395 14.883C9.43578 14.883 9.33775 14.8249 9.2938 14.736L7.55964 11.3134C7.51231 11.2176 7.53259 11.1082 7.60696 11.0296L8.27629 10.3663C8.38108 10.2637 8.55687 10.2569 8.66504 10.3526C8.7766 10.4483 8.78336 10.609 8.67856 10.7116L8.13431 11.2484L9.51015 13.9632L10.9401 10.421C10.9942 10.2876 11.153 10.2227 11.295 10.2705C11.437 10.3184 11.5114 10.4654 11.4573 10.5988L9.79749 14.7086C9.75692 14.8044 9.66227 14.8693 9.55072 14.8727C9.55072 14.883 9.54734 14.883 9.54395 14.883ZM9.48649 9.79869C9.41888 9.79869 9.35127 9.77475 9.29718 9.7303C9.18563 9.63457 9.17887 9.47387 9.28366 9.37129L12.8027 5.88373C12.894 5.79483 13.0393 5.77773 13.1509 5.83928C13.2624 5.90424 13.3098 6.03075 13.2658 6.14701L11.9812 9.33026C11.9272 9.46361 11.7683 9.52857 11.6263 9.4807C11.4843 9.43284 11.41 9.28581 11.464 9.15246L12.2652 7.16934L9.68931 9.72005C9.63185 9.77133 9.56086 9.79869 9.48649 9.79869Z" fill="#73BBFF"/>
<path d="M16.4447 19.9803C16.3839 19.9803 16.323 19.9632 16.2723 19.9256L9.36949 14.8242C9.30864 14.7798 9.27145 14.7148 9.26469 14.643C9.25793 14.5712 9.28498 14.5028 9.33906 14.4515L11.5431 12.2804C11.6479 12.1778 11.8237 12.1709 11.9319 12.2701C12.0434 12.3658 12.0468 12.5265 11.9454 12.6291L9.94754 14.5986L16.6171 19.5256C16.7355 19.6145 16.7557 19.7752 16.6611 19.8846C16.607 19.9462 16.5259 19.9803 16.4447 19.9803ZM15.985 18.7734C15.8734 18.7734 15.7687 18.7118 15.7281 18.6093L12.9122 11.6717C12.8074 11.7367 12.662 11.7299 12.5674 11.6478C12.4558 11.5521 12.4491 11.3914 12.5539 11.2854L12.8175 11.0255C12.8818 10.9606 12.9764 10.9332 13.0744 10.9503C13.1691 10.9674 13.2468 11.0289 13.2773 11.111L16.2453 18.428C16.2994 18.5614 16.2284 18.7084 16.083 18.7563C16.0492 18.77 16.0154 18.7734 15.985 18.7734Z" fill="#73BBFF"/>
<path d="M9.82586 14.6023C9.75825 14.6023 9.69064 14.5784 9.63655 14.5339C9.525 14.4382 9.52162 14.2775 9.62303 14.1749L9.84276 13.9561C9.83262 13.9526 9.82586 13.9526 9.81572 13.9492C9.67374 13.9014 9.59937 13.7543 9.65346 13.621L12.7432 5.96886C12.7973 5.83551 12.9561 5.77055 13.0981 5.81842C13.2401 5.86629 13.3145 6.01331 13.2604 6.14666L12.8649 7.12796C12.9054 7.10403 12.9528 7.09377 13.0035 7.09377C13.1556 7.09377 13.2807 7.2066 13.2807 7.35021L13.2874 11.207C13.2874 11.272 13.2604 11.3336 13.2131 11.3814L10.0219 14.5271C9.97122 14.5749 9.90023 14.6023 9.82586 14.6023ZM12.7297 7.46304L10.2822 13.5252L12.7398 11.1045L12.7297 7.46304Z" fill="#73BBFF"/>
<path d="M11.2773 21.7211C11.2299 21.7211 11.186 21.7108 11.1454 21.6903C11.0778 21.6561 11.0271 21.5946 11.0102 21.5262L9.27606 14.6879C9.24901 14.5819 9.29634 14.4724 9.39775 14.4143C9.49579 14.3562 9.62424 14.363 9.71889 14.4314L10.8074 15.2349C10.9257 15.3238 10.946 15.4845 10.8513 15.5939C10.7567 15.7033 10.5809 15.7239 10.4626 15.635L9.99609 15.293L11.4767 21.1364L12.3523 20.8492C12.4942 20.8013 12.6531 20.8697 12.7038 21.0031C12.7545 21.1364 12.6802 21.2834 12.5348 21.3279L11.3685 21.7108C11.3415 21.7177 11.3111 21.7211 11.2773 21.7211ZM13.8295 20.88C13.7146 20.88 13.6098 20.815 13.5692 20.709C13.5185 20.5757 13.5929 20.4287 13.7382 20.3842L15.9254 19.6662L11.6119 16.4795C11.4936 16.3906 11.4733 16.2299 11.568 16.1205C11.6626 16.0111 11.8384 15.9906 11.9567 16.0795L16.6589 19.5533C16.7367 19.6115 16.7739 19.7038 16.7603 19.7961C16.7434 19.8884 16.6758 19.9636 16.5812 19.9944L13.9275 20.8663C13.8937 20.8766 13.8599 20.88 13.8295 20.88Z" fill="#73BBFF"/>
<path d="M13.016 6.32473C12.9112 6.32473 12.8166 6.27344 12.7659 6.1948L12.1777 5.61696C12.0729 5.51438 12.0796 5.35368 12.1912 5.25795C12.3028 5.16221 12.4785 5.16563 12.58 5.2682L13.016 5.69902L17.4174 1.3635L17.0759 1.43188C16.9272 1.46266 16.7785 1.37376 16.748 1.23357C16.7176 1.09681 16.8123 0.960038 16.961 0.929265L18.1644 0.693342C18.2828 0.669408 18.4044 0.720695 18.4619 0.816432C18.5194 0.912169 18.5059 1.03526 18.4213 1.11732L13.2189 6.24609C13.1682 6.29738 13.0938 6.32473 13.016 6.32473ZM11.3731 4.70404C11.2988 4.70404 11.2278 4.67668 11.1703 4.62198L9.3415 2.82349C9.27389 2.75511 9.25022 2.65937 9.28065 2.57389C9.31107 2.48841 9.38882 2.42003 9.48685 2.39951L15.5176 1.21306C15.6629 1.18228 15.8117 1.27118 15.8455 1.40795C15.8793 1.54472 15.7846 1.6849 15.6359 1.71568L10.0818 2.80639L11.5726 4.27322C11.6774 4.3758 11.6706 4.5365 11.5591 4.63224C11.5084 4.6801 11.4407 4.70404 11.3731 4.70404Z" fill="#73BBFF"/>
<path d="M13.0134 11.46C12.9695 11.46 12.9256 11.4498 12.8884 11.4327C12.7971 11.3882 12.7396 11.3028 12.7396 11.207L12.7295 6.07141C12.7295 6.00303 12.7599 5.93806 12.8106 5.89019C12.885 5.82181 13.0101 5.79788 13.1081 5.82865L14.6158 6.32443C14.7578 6.3723 14.8355 6.51932 14.7848 6.64925C14.7341 6.7826 14.5786 6.85098 14.4332 6.80312L13.2839 6.42359L13.294 10.7044L17.6311 7.8528L15.8226 7.25787C15.6806 7.21 15.6029 7.06297 15.6536 6.93304C15.7043 6.7997 15.8632 6.73131 16.0051 6.77918L18.314 7.53824C18.412 7.56901 18.4796 7.65107 18.4965 7.74339C18.51 7.83913 18.4661 7.93144 18.3816 7.98615L13.1791 11.4053C13.1284 11.4429 13.0709 11.46 13.0134 11.46Z" fill="#73BBFF"/>
<path d="M18.2205 8.04118C18.1901 8.04118 18.1597 8.03776 18.1292 8.02751L12.9268 6.3145C12.7848 6.26663 12.707 6.11961 12.7577 5.98968C12.8084 5.85633 12.9673 5.78795 13.1093 5.83581L17.9433 7.42915V4.728C17.9433 4.58781 18.0684 4.47156 18.2205 4.47156C18.3726 4.47156 18.4977 4.58439 18.4977 4.728V7.78817C18.4977 7.87023 18.4538 7.94887 18.3794 7.99674C18.3321 8.02409 18.2746 8.04118 18.2205 8.04118ZM13.9612 5.39474C13.8936 5.39474 13.826 5.37081 13.7719 5.32636C13.6603 5.23062 13.6569 5.06992 13.7583 4.96734L18.0177 0.77201C18.0954 0.696788 18.2138 0.669435 18.3219 0.710465C18.4267 0.748076 18.4977 0.843813 18.4977 0.946388V3.36375C18.4977 3.50393 18.3726 3.62019 18.2205 3.62019C18.0684 3.62019 17.9433 3.50735 17.9433 3.36375V1.58919L14.164 5.31268C14.1099 5.36739 14.0355 5.39474 13.9612 5.39474Z" fill="#73BBFF"/>
<path d="M18.2207 16.5923C18.1463 16.5923 18.0719 16.565 18.0178 16.5103L16.304 14.8212C16.1992 14.7186 16.2059 14.5579 16.3175 14.4588C16.429 14.363 16.6014 14.3664 16.7096 14.469L17.9468 15.6897V11.4601H13.6537L15.7022 13.4809C15.807 13.5835 15.8003 13.7442 15.6887 13.8433C15.5772 13.939 15.4014 13.9356 15.2966 13.833L12.812 11.3849C12.7376 11.3097 12.7173 11.2003 12.7613 11.108C12.8052 11.0156 12.9032 10.9541 13.0148 10.9541H18.2173C18.3694 10.9541 18.4945 11.0669 18.4945 11.2105V16.3427C18.4945 16.4487 18.4235 16.541 18.3187 16.5787C18.2883 16.5855 18.2545 16.5923 18.2207 16.5923Z" fill="#73BBFF"/>
<path d="M16.4818 20.0078C16.4784 20.0078 16.475 20.0078 16.4716 20.0078C16.3601 20.0043 16.262 19.9394 16.2249 19.8436L13.7031 13.631C13.649 13.4976 13.72 13.3506 13.8653 13.3027C14.0073 13.2515 14.1662 13.3198 14.2203 13.4532L16.5122 19.0983L16.9381 18.2606C17.0024 18.134 17.168 18.0793 17.3066 18.1375C17.4452 18.1956 17.5027 18.3495 17.4384 18.476L16.7353 19.8642C16.688 19.9496 16.59 20.0078 16.4818 20.0078ZM17.8137 17.3887C17.7731 17.3887 17.7325 17.3818 17.6954 17.3647C17.5568 17.3032 17.4993 17.1527 17.5635 17.0262L17.888 16.3868L13.72 12.2736C13.7166 12.3727 13.649 12.4651 13.5408 12.5027C13.3988 12.5539 13.2399 12.4856 13.1859 12.3522L12.7565 11.2923C12.7092 11.1794 12.7565 11.0495 12.8681 10.9845C12.9796 10.9196 13.125 10.9367 13.2163 11.0256L18.4188 16.1578C18.4965 16.233 18.5168 16.3458 18.4661 16.4416L18.0604 17.2382C18.0165 17.334 17.9185 17.3887 17.8137 17.3887Z" fill="#73BBFF"/>
<path d="M19.9548 25.1412C19.8602 25.1412 19.7723 25.0967 19.7216 25.0215L16.2499 19.8893C16.1992 19.8175 16.1958 19.7252 16.233 19.6466L16.6183 18.8909C16.6826 18.7644 16.8482 18.7097 16.9868 18.7678C17.1254 18.826 17.1829 18.9798 17.1186 19.1063L16.7975 19.7355L19.8703 24.2795L20.374 22.7922C20.4213 22.6589 20.5734 22.5836 20.7188 22.6247C20.8642 22.6657 20.9453 22.8093 20.9013 22.9461L20.2185 24.9634C20.1847 25.0591 20.0968 25.1275 19.9886 25.1412C19.9785 25.1412 19.965 25.1412 19.9548 25.1412ZM21.0771 21.8246C21.0501 21.8246 21.023 21.8212 20.996 21.8143C20.8506 21.7733 20.7695 21.6297 20.8134 21.4929L21.3814 19.8209L18.2984 16.7881L17.744 17.8754C17.6798 18.0019 17.5141 18.0566 17.3755 17.9985C17.2369 17.9404 17.1795 17.7865 17.2437 17.66L17.9705 16.2308C18.0111 16.1556 18.0854 16.1009 18.1767 16.0872C18.268 16.0735 18.3593 16.1043 18.4201 16.1658L21.8918 19.5816C21.9594 19.65 21.9831 19.7457 21.9527 19.8312L21.3374 21.6468C21.3036 21.7562 21.1954 21.8246 21.0771 21.8246Z" fill="#73BBFF"/>
<path d="M18.221 11.4604H16.9398C16.7877 11.4604 16.6626 11.3475 16.6626 11.2039C16.6626 11.0603 16.7877 10.9475 16.9398 10.9475H17.9438V8.28054L13.8805 10.9475H15.4659C15.618 10.9475 15.7431 11.0603 15.7431 11.2039C15.7431 11.3475 15.618 11.4604 15.4659 11.4604H13.0151C12.8934 11.4604 12.7886 11.3886 12.7514 11.2826C12.7142 11.1766 12.7582 11.0603 12.8562 10.9954L18.0587 7.57619C18.1432 7.52148 18.2548 7.51464 18.346 7.55567C18.4373 7.60012 18.4948 7.6856 18.4948 7.78134V11.2005C18.4982 11.3441 18.3731 11.4604 18.221 11.4604Z" fill="#73BBFF"/>
<path d="M18.2186 8.04187C18.1578 8.04187 18.1003 8.02478 18.0496 7.99058C17.982 7.94272 17.9414 7.86749 17.9414 7.78885V0.950495C17.9414 0.851339 18.0023 0.76244 18.0969 0.72141C18.1916 0.676961 18.3065 0.690637 18.3876 0.752183L20.6086 2.39339C20.7269 2.48229 20.7472 2.64299 20.6525 2.7524C20.5579 2.86182 20.3821 2.87891 20.2638 2.79343L18.4958 1.47705V7.45377L19.537 7.19733C19.6823 7.15972 19.8345 7.24178 19.875 7.37855C19.9156 7.51532 19.8277 7.6555 19.679 7.6897L18.2896 8.03161C18.2659 8.03845 18.2423 8.04187 18.2186 8.04187ZM21.0311 7.34436C20.9094 7.34436 20.7979 7.26914 20.7641 7.1563C20.7235 7.01954 20.8114 6.87935 20.9601 6.84516L24.5569 5.95617L21.4165 3.63797C21.2982 3.54907 21.2779 3.38837 21.3726 3.27896C21.4672 3.16954 21.643 3.14903 21.7613 3.23793L25.3277 5.87411C25.4088 5.93566 25.446 6.03139 25.4257 6.12713C25.4054 6.22287 25.3277 6.29467 25.2263 6.32202L21.1021 7.34094C21.0785 7.34436 21.0514 7.34436 21.0311 7.34436Z" fill="#73BBFF"/>
<path d="M23.4253 13.1704C23.3509 13.1704 23.2765 13.143 23.2225 13.0883L18.0166 7.95957C17.949 7.8946 17.9253 7.80229 17.9524 7.71339C17.9794 7.62791 18.0538 7.55952 18.145 7.53559L19.8623 7.11503C20.011 7.07742 20.1598 7.15948 20.2003 7.29625C20.2409 7.43301 20.153 7.5732 20.0043 7.60739L18.7366 7.92196L23.2732 12.3908L23.4354 11.7514C23.4692 11.6147 23.618 11.5258 23.7667 11.56C23.9154 11.5907 24.0067 11.7275 23.9729 11.8677L23.6923 12.9721C23.6687 13.0644 23.5943 13.1362 23.4963 13.1601C23.4726 13.167 23.4489 13.1704 23.4253 13.1704ZM24.0405 10.7394C24.0202 10.7394 24 10.7359 23.9763 10.7325C23.8276 10.7017 23.7363 10.565 23.7701 10.4248L24.7808 6.42778L21.4274 7.25522C21.2787 7.28941 21.13 7.21077 21.0894 7.074C21.0488 6.93723 21.1367 6.79705 21.2855 6.76285L25.0851 5.826C25.1797 5.80548 25.2778 5.826 25.3488 5.89096C25.4197 5.95251 25.4468 6.04483 25.4265 6.13373L24.311 10.5479C24.2805 10.6607 24.1656 10.7394 24.0405 10.7394Z" fill="#73BBFF"/>
<path d="M18.2201 16.5926C18.1762 16.5926 18.1322 16.5824 18.095 16.5653C18.0038 16.5208 17.9463 16.4354 17.9463 16.3396V11.204C17.9463 11.122 17.9902 11.0433 18.0646 10.9954C18.139 10.9476 18.2302 10.9339 18.3148 10.9647L23.5206 12.6743C23.6187 12.705 23.6863 12.7871 23.7032 12.8794C23.7167 12.9752 23.6727 13.0675 23.5882 13.1222L22.2563 13.9975C22.1313 14.0795 21.9589 14.0522 21.871 13.9359C21.7831 13.8197 21.8101 13.6624 21.9352 13.5803L22.8344 12.9888L18.4973 11.563V15.8404L20.7351 14.3668C20.8602 14.2847 21.0326 14.312 21.1205 14.4283C21.2084 14.5446 21.1814 14.7018 21.0563 14.7839L18.3824 16.5448C18.3317 16.5755 18.2776 16.5926 18.2201 16.5926Z" fill="#73BBFF"/>
<path d="M23.056 13.0507C23.0256 13.0507 22.9952 13.0473 22.9647 13.0371L18.124 11.4471C18.0124 11.4095 17.9414 11.3138 17.9414 11.2078V7.78862C17.9414 7.68263 18.0124 7.59031 18.1172 7.5527C18.222 7.51509 18.3437 7.53902 18.4214 7.61424L22.8836 12.0079C22.9884 12.1105 22.9816 12.2712 22.8701 12.3669C22.8397 12.3943 22.8025 12.4148 22.7653 12.425L23.1473 12.5515C23.2893 12.5994 23.367 12.7464 23.3163 12.8764C23.2791 12.9824 23.1709 13.0507 23.056 13.0507ZM18.4958 11.0232L22.4475 12.319L18.4958 8.42801V11.0232Z" fill="#73BBFF"/>
<path d="M21.6913 20.0085C21.617 20.0085 21.5426 19.9811 21.4885 19.9264L18.0168 16.5107C17.9627 16.456 17.9357 16.3842 17.9424 16.3089C17.9492 16.2371 17.9931 16.1688 18.0574 16.1277L23.2632 12.7051C23.3579 12.6436 23.483 12.6402 23.5776 12.7017C23.6723 12.7598 23.7196 12.8693 23.6926 12.9718L23.1551 15.0986C23.1213 15.2353 22.9691 15.3208 22.8238 15.29C22.675 15.2593 22.5838 15.1191 22.6176 14.9823L22.9894 13.5155L18.6354 16.3773L21.5392 19.2323L22.2829 16.3055C22.3167 16.1688 22.4688 16.0833 22.6142 16.1141C22.7629 16.1448 22.8542 16.285 22.8204 16.4218L21.9618 19.8102C21.9381 19.9025 21.8637 19.9743 21.7657 19.9982C21.7387 20.0051 21.715 20.0085 21.6913 20.0085Z" fill="#73BBFF"/>
<path d="M28.6277 13.1703H26.1296C25.9774 13.1703 25.8524 13.0574 25.8524 12.9138C25.8524 12.7702 25.9808 12.6574 26.133 12.6574H28.195L25.6867 7.71668C25.6225 7.59017 25.68 7.43631 25.8186 7.37818C25.9572 7.31664 26.1194 7.37134 26.187 7.50127L28.8779 12.8044C28.9184 12.8831 28.9117 12.9754 28.861 13.0506C28.8103 13.1258 28.7224 13.1703 28.6277 13.1703ZM24.6591 13.1703H23.4252C23.3407 13.1703 23.2596 13.1361 23.2089 13.0745C23.1582 13.013 23.1379 12.9343 23.1582 12.8591L24.8889 6.01735C24.916 5.91135 25.0106 5.83271 25.129 5.82245C25.2507 5.8122 25.3588 5.87032 25.4062 5.96948L25.5617 6.27379C25.6259 6.4003 25.5684 6.55416 25.4298 6.61228C25.3859 6.62938 25.3419 6.63964 25.298 6.63622L23.7734 12.6574H24.6591C24.8112 12.6574 24.9363 12.7702 24.9363 12.9138C24.9363 13.0574 24.8112 13.1703 24.6591 13.1703Z" fill="#73BBFF"/>
<path d="M21.6923 20.0077C21.6484 20.0077 21.6045 19.9974 21.5605 19.9769C21.449 19.9222 21.3949 19.806 21.4219 19.6931L23.1561 12.8548C23.1797 12.7625 23.2541 12.6906 23.3521 12.6667C23.4502 12.6428 23.555 12.6701 23.626 12.7385L27.0909 16.1611C27.1484 16.2192 27.1754 16.2979 27.1619 16.3765C27.1484 16.4552 27.0943 16.5235 27.0199 16.5612L23.7105 18.1955C23.5753 18.2639 23.4096 18.216 23.3386 18.0895C23.2676 17.9664 23.3183 17.8092 23.4536 17.7442L26.4452 16.2671L23.5786 13.436L22.196 18.8828L22.338 18.7426C22.4428 18.64 22.6186 18.6366 22.7268 18.7323C22.8383 18.8281 22.8417 18.9888 22.7403 19.0914L21.8918 19.9256C21.8411 19.9803 21.7667 20.0077 21.6923 20.0077Z" fill="#73BBFF"/>
<path d="M26.8918 16.5927C26.8175 16.5927 26.7431 16.5653 26.689 16.5106L23.2241 13.088C23.1497 13.0128 23.1294 12.9068 23.1734 12.8111C23.2173 12.7154 23.3187 12.6572 23.4269 12.6572H27.4868C27.6389 12.6572 27.764 12.7701 27.764 12.9137C27.764 13.0573 27.6389 13.1701 27.4868 13.1701H24.0624L26.8141 15.8883L28.2406 13.0778C28.3049 12.9513 28.4705 12.8966 28.6091 12.9547C28.7477 13.0128 28.8052 13.1667 28.7409 13.2932L27.142 16.4423C27.1014 16.5175 27.0271 16.5722 26.9358 16.5859C26.9189 16.5927 26.9054 16.5927 26.8918 16.5927Z" fill="#73BBFF"/>
<path d="M19.9534 25.1401C19.8587 25.1401 19.7708 25.0956 19.7201 25.0204L16.8062 20.7123C16.7251 20.5926 16.7656 20.4353 16.8941 20.3601C17.0226 20.2849 17.195 20.3225 17.2761 20.4421L19.8689 24.2819L20.6869 21.8645C20.7343 21.7312 20.8864 21.6559 21.0317 21.697C21.1771 21.738 21.2582 21.8816 21.2143 22.0184L20.2171 24.9657C20.1833 25.0614 20.0954 25.1298 19.9872 25.1435C19.9771 25.1401 19.9635 25.1401 19.9534 25.1401ZM11.2758 21.7209C11.2014 21.7209 11.1271 21.6936 11.073 21.6389L8.52075 19.1223C8.41596 19.0198 8.42272 18.8591 8.53427 18.7599C8.64583 18.6642 8.82161 18.6676 8.9264 18.7702L11.3536 21.1636L15.9915 19.6352C16.1335 19.5873 16.2924 19.6557 16.3431 19.7891C16.3938 19.9224 16.3194 20.0694 16.1741 20.1139L11.3637 21.697C11.34 21.7175 11.3096 21.7209 11.2758 21.7209ZM21.3901 20.8969C21.363 20.8969 21.336 20.8935 21.3089 20.8866C21.1636 20.8456 21.0825 20.702 21.1264 20.5652L21.4273 19.6762C21.4408 19.6386 21.4611 19.6044 21.4881 19.5771L23.2223 17.8709C23.2426 17.8504 23.2662 17.8333 23.2933 17.8196L26.6771 16.1511L27.2213 15.0809C27.2856 14.9544 27.4512 14.8997 27.5898 14.9578C27.7284 15.0159 27.7859 15.1698 27.7216 15.2963L27.1402 16.4417C27.1165 16.493 27.0726 16.534 27.0219 16.558L23.5975 18.247L21.9377 19.878L21.6571 20.7088C21.6166 20.8251 21.5084 20.8969 21.3901 20.8969ZM7.6824 18.2607C7.65198 18.2607 7.62156 18.2573 7.59113 18.247L2.51034 16.5785C2.4292 16.5511 2.36498 16.4896 2.33793 16.4143L1.31366 13.3747C1.26972 13.2379 1.35085 13.0943 1.4962 13.0533C1.64494 13.0123 1.79706 13.0875 1.84101 13.2208L2.8281 16.1374L7.77706 17.7649C7.91903 17.8128 7.99678 17.9598 7.94608 18.0897C7.90213 18.1957 7.79734 18.2607 7.6824 18.2607ZM28.0969 14.2158C28.0563 14.2158 28.0191 14.209 27.9785 14.1919C27.8399 14.1338 27.7825 13.9799 27.8467 13.8534L28.3233 12.9165L24.9328 6.23203L24.4697 5.89012C24.3513 5.80122 24.3311 5.64052 24.4257 5.5311C24.5204 5.42169 24.6961 5.40117 24.8145 5.49007L25.3283 5.8696C25.3621 5.89354 25.3891 5.92431 25.406 5.96192L28.8777 12.8037C28.9115 12.8721 28.9115 12.9507 28.8777 13.0191L28.347 14.0654C28.2997 14.1611 28.2017 14.2158 28.0969 14.2158ZM1.13788 12.2532C1.01956 12.2532 0.911389 12.1848 0.874204 12.0754L0.60715 11.2822C0.583487 11.2104 0.593628 11.1351 0.637574 11.0702L4.1059 5.93799C4.12618 5.91063 4.14985 5.88328 4.18027 5.86618L5.31272 5.1208C5.43779 5.03874 5.6102 5.06609 5.69809 5.18235C5.78598 5.2986 5.75893 5.45588 5.63386 5.53794L4.54874 6.25255L1.17506 11.2446L1.40493 11.9284C1.44888 12.0617 1.36775 12.2053 1.22239 12.2498C1.19197 12.2498 1.16492 12.2532 1.13788 12.2532ZM23.4893 5.09687C23.4285 5.09687 23.3676 5.07977 23.3169 5.04216L18.1482 1.21952L16.2349 1.59563C16.0895 1.6264 15.9374 1.5375 15.907 1.40073C15.8766 1.26397 15.9712 1.1272 16.12 1.09643L18.1618 0.696384C18.2429 0.679288 18.3274 0.699803 18.3916 0.747672L23.6651 4.64212C23.7834 4.73102 23.8037 4.89172 23.7091 5.00113C23.6516 5.06268 23.5705 5.09687 23.4893 5.09687ZM6.67165 4.79256C6.58376 4.79256 6.49925 4.75495 6.44516 4.68657C6.35727 4.57031 6.38432 4.41303 6.50939 4.33097L9.38276 2.44358C9.41319 2.42307 9.44699 2.40939 9.48418 2.40255L14.6799 1.38022C14.8253 1.34945 14.9774 1.43835 15.0078 1.57511C15.0382 1.71188 14.9436 1.84865 14.7948 1.87942L9.65658 2.8915L6.83053 4.74811C6.78321 4.77888 6.72574 4.79256 6.67165 4.79256Z" fill="#73BBFF"/>
<path d="M26.8919 16.5917C26.8175 16.5917 26.7431 16.5644 26.689 16.5097L23.2241 13.0871C23.1599 13.0255 23.1362 12.9366 23.1565 12.8546L24.0151 9.46615C24.0489 9.32938 24.1977 9.24048 24.3464 9.27468C24.4951 9.30545 24.5864 9.44222 24.5526 9.5824L23.7278 12.8375L27.0913 16.1609C27.1961 16.2635 27.1893 16.4242 27.0778 16.5199C27.0271 16.5678 26.9595 16.5917 26.8919 16.5917ZM24.6202 8.45407C24.5999 8.45407 24.5796 8.45065 24.556 8.44723C24.4072 8.41646 24.316 8.27969 24.3498 8.13951L24.8873 6.00936C24.9211 5.87259 25.0698 5.78369 25.2185 5.81789C25.3673 5.84866 25.4586 5.98543 25.4247 6.12561L24.8873 8.25576C24.8602 8.37543 24.7453 8.45407 24.6202 8.45407Z" fill="#73BBFF"/>
<path d="M23.4253 13.1695C23.3509 13.1695 23.2799 13.1421 23.2225 13.0874L20.1564 10.0648C20.0516 9.96226 20.0584 9.80156 20.1699 9.70582C20.2815 9.61009 20.4573 9.6135 20.5587 9.71608L23.6247 12.7386C23.7295 12.8412 23.7228 13.0019 23.6112 13.0976C23.5605 13.1455 23.4929 13.1695 23.4253 13.1695ZM19.3519 9.15533C19.2775 9.15533 19.2065 9.12798 19.149 9.07327L18.0166 7.95862C17.949 7.89366 17.9253 7.80134 17.9524 7.71244C17.9794 7.62696 18.0538 7.55858 18.145 7.53464L25.0817 5.82164C25.2271 5.78402 25.3792 5.86608 25.4197 6.00285C25.4603 6.13962 25.3724 6.27981 25.2237 6.314L18.7332 7.91759L19.5479 8.7211C19.6527 8.82367 19.646 8.98438 19.5344 9.08011C19.4871 9.1314 19.4195 9.15533 19.3519 9.15533Z" fill="#73BBFF"/>
<path d="M18.2215 8.04118C18.1911 8.04118 18.1606 8.03776 18.1302 8.02751L12.9277 6.3145C12.7858 6.26663 12.708 6.11961 12.7587 5.98968C12.8094 5.85633 12.9683 5.78795 13.1103 5.83581L17.9443 7.42915V4.728C17.9443 4.58781 18.0694 4.47156 18.2215 4.47156C18.3736 4.47156 18.4987 4.58439 18.4987 4.728V7.78817C18.4987 7.87023 18.4547 7.94887 18.3804 7.99674C18.3331 8.02409 18.2756 8.04118 18.2215 8.04118ZM13.9621 5.39474C13.8945 5.39474 13.8269 5.37081 13.7728 5.32636C13.6613 5.23062 13.6579 5.06992 13.7593 4.96734L18.0187 0.77201C18.0964 0.696788 18.2147 0.669435 18.3229 0.710465C18.4277 0.748076 18.4987 0.843813 18.4987 0.946388V3.36375C18.4987 3.50393 18.3736 3.62019 18.2215 3.62019C18.0694 3.62019 17.9443 3.50735 17.9443 3.36375V1.58919L14.165 5.31268C14.1109 5.36739 14.0365 5.39474 13.9621 5.39474Z" fill="#73BBFF"/>
<path d="M7.80774 11.4589C7.76379 11.4589 7.72323 11.4487 7.68266 11.4316C7.57449 11.3803 7.51364 11.2675 7.5373 11.1581L7.80774 9.82457C7.83478 9.68439 7.98014 9.59207 8.12888 9.61942C8.27762 9.64678 8.37903 9.78012 8.34861 9.91689L8.25396 10.3887L12.6249 6.05664L11.9657 5.40699C11.8609 5.30442 11.8676 5.14372 11.9792 5.04798C12.0908 4.95224 12.2665 4.95566 12.3679 5.05824L13.2029 5.87884C13.3009 5.978 13.3043 6.12844 13.2029 6.2276L8.01056 11.3769C7.95648 11.4316 7.88211 11.4589 7.80774 11.4589ZM8.34861 8.78514C8.33171 8.78514 8.3148 8.78514 8.2979 8.78172C8.14916 8.75437 8.04775 8.62102 8.07817 8.48425L9.27147 2.60327C9.29175 2.50753 9.36612 2.43231 9.46415 2.40495C9.56218 2.3776 9.67036 2.40495 9.74135 2.47676L11.3606 4.0701C11.4654 4.17267 11.4586 4.33337 11.3471 4.42911C11.2355 4.52485 11.0597 4.52143 10.9583 4.41885L9.71092 3.19479L8.61904 8.57999C8.59538 8.69966 8.48044 8.78514 8.34861 8.78514Z" fill="#73BBFF"/>
<path d="M7.80858 11.4598H0.871922C0.719803 11.4598 0.594727 11.3435 0.594727 11.2033C0.594727 11.0631 0.719803 10.9469 0.871922 10.9469H7.31165L6.57134 9.84933C6.49021 9.72966 6.53077 9.57238 6.65923 9.49716C6.78769 9.42194 6.96009 9.45955 7.04122 9.57922L8.04521 11.0666C8.0993 11.1452 8.10268 11.2444 8.05197 11.3264C8.00126 11.4085 7.90999 11.4598 7.80858 11.4598ZM6.02371 8.81674C5.93244 8.81674 5.84116 8.77571 5.79046 8.69707L4.107 6.20449C4.02587 6.08482 4.06644 5.92753 4.19489 5.85231C4.32335 5.77709 4.49575 5.8147 4.57688 5.93437L6.26034 8.42695C6.34147 8.54663 6.3009 8.70391 6.17245 8.77913C6.12512 8.80306 6.07441 8.81674 6.02371 8.81674Z" fill="#73BBFF"/>
<path d="M2.60499 16.5915C2.51033 16.5915 2.41906 16.5471 2.36836 16.4684C2.30413 16.3693 2.32103 16.2462 2.40216 16.1641L7.60465 11.0319C7.66888 10.9704 7.76015 10.943 7.84804 10.9533C7.93932 10.967 8.01707 11.0217 8.05425 11.0969L8.57484 12.1226C8.63907 12.2491 8.5816 12.403 8.443 12.4611C8.3044 12.5193 8.14214 12.468 8.07453 12.338L7.72635 11.6542L3.467 15.8598L9.15289 14.4579L8.7033 13.5724C8.63907 13.4459 8.69653 13.292 8.83513 13.2339C8.97373 13.1723 9.13599 13.227 9.2036 13.357L9.7918 14.5195C9.8256 14.5879 9.8256 14.6665 9.7918 14.7349C9.75799 14.8033 9.69038 14.8546 9.61263 14.8751L2.67598 16.5847C2.65231 16.5881 2.62865 16.5915 2.60499 16.5915Z" fill="#73BBFF"/>
<path d="M11.2765 21.7214C11.1514 21.7214 11.0365 21.6428 11.0094 21.5231L10.695 20.2854C10.6612 20.1486 10.7525 20.0118 10.9012 19.9777C11.0466 19.9435 11.1987 20.0289 11.2325 20.1691L11.5469 21.4069C11.5807 21.5436 11.4894 21.6804 11.3407 21.7146C11.3204 21.7214 11.2968 21.7214 11.2765 21.7214ZM10.6274 19.1571C10.5024 19.1571 10.3874 19.0784 10.3604 18.9587L9.4578 15.3994L8.06168 18.1552C7.99746 18.2817 7.83181 18.3364 7.69322 18.2783C7.55462 18.2202 7.49715 18.0663 7.56138 17.9398L9.29554 14.5206C9.34625 14.4215 9.45442 14.3668 9.57274 14.3736C9.69105 14.3839 9.78571 14.4625 9.81275 14.5685L10.8979 18.8425C10.9317 18.9793 10.8404 19.116 10.6917 19.1502C10.668 19.1536 10.6477 19.1571 10.6274 19.1571Z" fill="#73BBFF"/>
<path d="M16.4836 20.0076C16.4227 20.0076 16.3619 19.9871 16.3112 19.9529L9.40833 14.8549C9.29002 14.766 9.26973 14.6053 9.36439 14.4959C9.45904 14.3865 9.63482 14.366 9.75314 14.4549L16.3822 19.3511L17.8898 16.3867L17.3659 15.8704C17.2611 15.7678 17.2678 15.6071 17.3794 15.508C17.491 15.4122 17.6634 15.4156 17.7715 15.5182L18.424 16.161C18.5017 16.2362 18.522 16.3491 18.4713 16.4448L16.7371 19.8606C16.6999 19.9324 16.6323 19.9837 16.5512 20.0008C16.5275 20.0042 16.5072 20.0076 16.4836 20.0076ZM16.5613 14.9541C16.487 14.9541 16.416 14.9267 16.3585 14.872L13.0153 11.5725L10.7166 13.836C10.6118 13.9386 10.4394 13.9454 10.3278 13.8462C10.2163 13.7505 10.2129 13.5898 10.3143 13.4872L12.8124 11.0254C12.8631 10.9741 12.9375 10.9434 13.0153 10.9434C13.093 10.9434 13.164 10.9741 13.2181 11.0254L16.7642 14.5232C16.869 14.6258 16.8622 14.7865 16.7506 14.8857C16.6966 14.9335 16.6289 14.9541 16.5613 14.9541Z" fill="#73BBFF"/>
<path d="M21.6913 20.0079C21.617 20.0079 21.546 19.9805 21.4885 19.9258L18.0168 16.5101C17.9627 16.4554 17.9357 16.3836 17.9424 16.3083C17.9492 16.2365 17.9931 16.1682 18.0574 16.1271L21.1268 14.1098C21.2519 14.0278 21.4243 14.0551 21.5122 14.1714C21.6001 14.2876 21.573 14.4449 21.4479 14.527L18.6388 16.3733L21.8942 19.5771C21.999 19.6797 21.9922 19.8404 21.8806 19.9361C21.8265 19.984 21.7589 20.0079 21.6913 20.0079ZM22.4857 13.785C22.3978 13.785 22.3133 13.7474 22.2592 13.679C22.1714 13.5627 22.1984 13.4055 22.3235 13.3234L23.2632 12.7045C23.3883 12.6225 23.5607 12.6498 23.6486 12.7661C23.7365 12.8823 23.7095 13.0396 23.5844 13.1217L22.6446 13.7405C22.5973 13.7713 22.5432 13.785 22.4857 13.785Z" fill="#73BBFF"/>
<path d="M13.0139 11.4599C12.97 11.4599 12.926 11.4497 12.8888 11.4326C12.7976 11.3881 12.7401 11.3026 12.7401 11.2069L12.7367 8.93998C12.7367 8.7998 12.8584 8.68355 13.0139 8.68355C13.166 8.68355 13.2911 8.79638 13.2911 8.93998L13.2945 10.7111L18.0643 7.57573C18.1893 7.49367 18.3618 7.52103 18.4496 7.63728C18.5375 7.75353 18.5105 7.91081 18.3854 7.99287L13.1829 11.4121C13.1288 11.4428 13.0714 11.4599 13.0139 11.4599ZM13.0071 7.83217C12.855 7.83217 12.7299 7.71934 12.7299 7.57915L12.7266 6.07129L13.2776 6.05762L13.281 7.57573C13.2843 7.71592 13.1593 7.83217 13.0071 7.83217Z" fill="#73BBFF"/>
<path d="M18.2206 16.5917C18.0684 16.5917 17.9434 16.4788 17.9434 16.3352V15.624C17.9434 15.4839 18.0684 15.3676 18.2206 15.3676C18.3727 15.3676 18.4978 15.4804 18.4978 15.624V16.3352C18.4978 16.4788 18.3727 16.5917 18.2206 16.5917ZM18.2206 14.5196C18.0684 14.5196 17.9434 14.4068 17.9434 14.2632V11.203C17.9434 11.121 17.9873 11.0423 18.0617 10.9945C18.136 10.9466 18.2273 10.9329 18.3118 10.9637L23.5177 12.6733C23.6597 12.7212 23.7374 12.8682 23.6867 12.9981C23.636 13.1315 23.4771 13.1998 23.3352 13.152L18.4978 11.5621V14.2598C18.4978 14.4034 18.3727 14.5196 18.2206 14.5196Z" fill="#73BBFF"/>
<path d="M18.2213 11.4604H13.0155C12.8634 11.4604 12.7383 11.3475 12.7383 11.2039C12.7383 11.0603 12.8634 10.9475 13.0155 10.9475H17.9442V7.84628C17.9442 7.7061 18.0692 7.58984 18.2213 7.58984C18.3735 7.58984 18.4985 7.70268 18.4985 7.84628V11.2039C18.4985 11.3441 18.3735 11.4604 18.2213 11.4604Z" fill="#73BBFF"/>
<path d="M21.6905 20.0079C21.6703 20.0079 21.6466 20.0045 21.6263 20.0011C21.4776 19.9703 21.3863 19.8301 21.4201 19.6933L23.1543 12.855C23.1881 12.7182 23.3402 12.6327 23.4856 12.6635C23.6343 12.6943 23.7256 12.8345 23.6918 12.9712L21.9576 19.8096C21.9306 19.9293 21.8156 20.0079 21.6905 20.0079Z" fill="#73BBFF"/>
<path d="M28.6291 13.1701H23.4266C23.2745 13.1701 23.1494 13.0573 23.1494 12.9137C23.1494 12.7701 23.2745 12.6572 23.4266 12.6572H28.6291C28.7812 12.6572 28.9063 12.7701 28.9063 12.9137C28.9063 13.0573 28.7846 13.1701 28.6291 13.1701Z" fill="#73BBFF"/>
<path d="M16.1185 19.1093C16.0069 19.1093 15.9021 19.0478 15.8616 18.9452L12.7583 11.2965C12.7042 11.1631 12.7752 11.0161 12.9206 10.9682C13.0626 10.917 13.2214 10.9853 13.2755 11.1187L16.3788 18.7674C16.4329 18.9007 16.3619 19.0478 16.2165 19.0956C16.1827 19.1025 16.1523 19.1093 16.1185 19.1093Z" fill="#73BBFF"/>
<path d="M9.91471 13.9624C9.8809 13.9624 9.85048 13.9556 9.81668 13.9453C9.6747 13.8975 9.60033 13.7504 9.65441 13.6171L12.7441 5.96496C12.7982 5.83161 12.9571 5.76664 13.0991 5.81451C13.2411 5.86238 13.3154 6.00941 13.2613 6.14275L10.1716 13.7949C10.1311 13.9009 10.0263 13.9624 9.91471 13.9624Z" fill="#73BBFF"/>
</svg>
