<svg width="379" height="466" viewBox="0 0 379 466" fill="none" xmlns="http://www.w3.org/2000/svg">
<path d="M288.392 159.356C300.478 148.59 307.975 128.704 305.145 114.948C302.314 101.193 290.228 98.7788 278.142 109.546C266.055 120.312 258.559 140.198 261.389 153.954C264.181 167.748 276.306 170.162 288.392 159.356ZM274.011 142.727C272.825 137.057 275.923 128.819 280.934 124.374C285.944 119.929 290.916 120.925 292.102 126.596C293.288 132.267 290.19 140.505 285.179 144.95C280.169 149.394 275.196 148.398 274.011 142.727Z" fill="#E23D52"/>
<path d="M309.734 117.056L309.161 114.221L308.166 109.431L307.592 106.596L301.511 109.048L302.582 114.182L303.653 119.355L304.724 124.489L309.734 117.056Z" fill="#E23D52"/>
<path d="M258.903 162.346L258.329 159.51L257.335 154.721L256.761 151.885L261.81 144.452L262.842 149.625L263.913 154.759L264.984 159.894L258.903 162.346Z" fill="#E23D52"/>
<path d="M284.606 167.48L287.092 165.257L291.299 161.503L293.785 159.28L294.703 151.004L290.152 155.065L285.638 159.089L281.125 163.112L284.606 167.48Z" fill="#E23D52"/>
<path d="M272.711 109.661L275.197 107.438L279.404 103.683L281.891 101.461L285.371 105.829L280.858 109.852L276.345 113.875L271.793 117.937L272.711 109.661Z" fill="#E23D52"/>
<path d="M302.927 145.487L304.304 141.923L306.561 135.869L307.938 132.306L304.266 128.206L301.818 134.681L299.37 141.157L296.922 147.671L302.927 145.487Z" fill="#E23D52"/>
<path d="M258.597 136.635L259.936 133.072L262.231 127.018L263.569 123.455L269.574 121.271L267.126 127.784L264.678 134.26L262.231 140.735L258.597 136.635Z" fill="#E23D52"/>
<path d="M265.482 170.123L267.662 170.545L271.334 171.273L273.514 171.733L278.41 164.146L274.471 163.38L270.531 162.575L266.553 161.771L265.482 170.123Z" fill="#E23D52"/>
<path d="M292.984 97.208L295.164 97.6678L298.835 98.3958L301.016 98.8173L299.945 107.17L295.967 106.366L292.027 105.599L288.088 104.795L292.984 97.208Z" fill="#E23D52"/>
<path d="M61.2749 289.21C73.3613 278.443 80.8579 258.557 78.0275 244.802C75.1972 231.046 63.1108 228.632 51.0244 239.399C38.938 250.166 31.4414 270.052 34.2718 283.807C37.0639 297.563 49.1885 299.977 61.2749 289.21ZM46.8936 272.542C45.7079 266.872 48.806 258.634 53.8165 254.189C58.827 249.744 63.7993 250.741 64.985 256.411C66.1706 262.082 63.0725 270.32 58.062 274.765C53.0515 279.209 48.0793 278.213 46.8936 272.542Z" fill="#F48C45"/>
<path d="M82.6172 246.871L82.0435 244.074L81.049 239.247L80.4753 236.411L74.3938 238.902L75.4648 244.036L76.5357 249.17L77.6067 254.305L82.6172 246.871Z" fill="#F48C45"/>
<path d="M31.7858 292.199L31.212 289.364L30.2176 284.574L29.6439 281.739L34.6926 274.306L35.7253 279.44L36.7962 284.574L37.8672 289.747L31.7858 292.199Z" fill="#F48C45"/>
<path d="M57.4885 297.295L59.9746 295.073L64.1819 291.318L66.7062 289.095L67.5859 280.857L63.0344 284.881L58.5211 288.904L54.0079 292.965L57.4885 297.295Z" fill="#F48C45"/>
<path d="M45.5938 239.514L48.0799 237.292L52.2872 233.537L54.7733 231.314L58.2539 235.682L53.7406 239.706L49.2274 243.729L44.7141 247.752L45.5938 239.514Z" fill="#F48C45"/>
<path d="M75.8098 275.339L77.1867 271.738L79.4434 265.684L80.8203 262.12L77.1485 258.021L74.7006 264.534L72.2528 271.01L69.8049 277.485L75.8098 275.339Z" fill="#F48C45"/>
<path d="M31.4798 266.489L32.8185 262.925L35.1134 256.871L36.4521 253.308L42.457 251.124L40.0092 257.599L37.5613 264.113L35.1134 270.589L31.4798 266.489Z" fill="#F48C45"/>
<path d="M38.3651 299.977L40.5453 300.398L44.2171 301.126L46.3972 301.548L51.293 294L47.3534 293.195L43.4139 292.429L39.4743 291.624L38.3651 299.977Z" fill="#F48C45"/>
<path d="M65.8663 227.062L68.0465 227.483L71.7565 228.211L73.8984 228.671L72.8275 236.985L68.8879 236.219L64.9101 235.414L60.9706 234.648L65.8663 227.062Z" fill="#F48C45"/>
<path d="M115.97 293.08L183.898 253.768L182.942 252.159L117.806 289.862V179.09H115.97V293.08Z" fill="#E23D52"/>
<path d="M95.3145 289.363L117.422 276.566L116.504 274.957L97.1504 286.145V251.277H95.3145V289.363Z" fill="#E23D52"/>
<path d="M194.568 253.653L215.184 241.737V128.819H213.309V240.664L193.65 252.044L194.568 253.653Z" fill="#E23D52"/>
<path d="M214.688 228.25L235.266 216.334V166.331H233.43V215.261L213.732 226.641L214.688 228.25Z" fill="#E23D52"/>
<path d="M160.681 195.374H162.555V261.086H160.681V195.374Z" fill="#E23D52"/>
<path d="M169.402 188.516C169.402 194.531 165.769 201.505 161.256 204.072C156.742 206.639 153.109 203.919 153.109 197.903C153.109 191.887 156.742 184.914 161.256 182.347C165.769 179.779 169.402 182.538 169.402 188.516Z" fill="#E23D52"/>
<path d="M167.414 190.087C167.414 193.995 165.043 198.478 162.136 200.164C159.229 201.85 156.858 200.049 156.858 196.179C156.858 192.271 159.229 187.788 162.136 186.102C165.043 184.416 167.414 186.217 167.414 190.087Z" fill="white"/>
<path d="M188.216 455.885C185.577 455.885 183.397 457.034 183.397 458.452C183.397 459.87 185.539 461.019 188.216 461.019C190.855 461.019 193.035 459.87 193.035 458.452C193.035 457.034 190.893 455.885 188.216 455.885Z" fill="#77BAF2"/>
<path d="M193.014 458.445H183.414V355.988H193.014V458.445Z" fill="#77BAF2"/>
<path d="M188.216 353.428C185.577 353.428 183.397 354.577 183.397 355.995C183.397 357.413 185.539 358.562 188.216 358.562C190.855 358.562 193.035 357.413 193.035 355.995C193.035 354.577 190.893 353.428 188.216 353.428Z" fill="#77BAF2"/>
<path d="M111.224 412.204C108.585 412.204 106.404 413.354 106.404 414.771C106.404 416.189 108.546 417.338 111.224 417.338C113.901 417.338 116.043 416.189 116.043 414.771C116.043 413.354 113.901 412.204 111.224 412.204Z" fill="#77BAF2"/>
<path d="M116.018 414.768H106.418L106.418 312.31H116.018L116.018 414.768Z" fill="#77BAF2"/>
<path d="M111.224 309.785C108.585 309.785 106.404 310.935 106.404 312.352C106.404 313.77 108.546 314.92 111.224 314.92C113.901 314.92 116.043 313.77 116.043 312.352C116.043 310.935 113.901 309.785 111.224 309.785Z" fill="#77BAF2"/>
<path d="M299.138 391.628C296.499 391.628 294.319 392.777 294.319 394.195C294.319 395.613 296.46 396.762 299.138 396.762C301.777 396.762 303.957 395.613 303.957 394.195C303.919 392.777 301.777 391.628 299.138 391.628Z" fill="#77BAF2"/>
<path d="M303.944 394.19H294.344V291.733H303.944V394.19Z" fill="#77BAF2"/>
<path d="M299.138 289.21C296.499 289.21 294.319 290.359 294.319 291.777C294.319 293.195 296.46 294.344 299.138 294.344C301.777 294.344 303.957 293.195 303.957 291.777C303.919 290.359 301.777 289.21 299.138 289.21Z" fill="#77BAF2"/>
<path d="M222.142 347.986C219.503 347.986 217.322 349.136 217.322 350.553C217.322 351.971 219.464 353.121 222.142 353.121C224.781 353.121 226.961 351.971 226.961 350.553C226.923 349.136 224.781 347.986 222.142 347.986Z" fill="#77BAF2"/>
<path d="M226.944 350.551H217.344V248.094H226.944V350.551Z" fill="#77BAF2"/>
<path d="M222.142 245.529C219.503 245.529 217.322 246.679 217.322 248.096C217.322 249.514 219.464 250.664 222.142 250.664C224.781 250.664 226.961 249.514 226.961 248.096C226.961 246.679 224.781 245.529 222.142 245.529Z" fill="#77BAF2"/>
<path d="M307.742 297.486L187.796 366.838L103.268 317.947L223.214 248.595L307.742 297.486Z" fill="#594554"/>
<path d="M307.742 291.624L187.796 360.976L103.268 312.084L223.214 242.732L307.742 291.624Z" fill="#CFE9FF"/>
<path d="M103.269 312.085V317.947L187.797 366.839V360.976L103.269 312.085Z" fill="#89CAEF"/>
<path d="M307.742 291.624V297.486L187.796 366.838V360.976L307.742 291.624Z" fill="#B3DAF4"/>
<path d="M238.439 409.407C238.439 409.407 238.515 417.377 238.439 422.052C238.362 426.688 231.478 429.14 228.15 424.121C224.134 424.159 219.468 424.044 210.059 416.649C200.65 409.254 198.967 403.009 206.961 401.974C214.954 400.94 232.395 407.185 232.395 407.185L238.439 409.407Z" fill="#5A2255"/>
<path d="M263.489 396.916C263.489 396.916 263.566 404.886 263.489 409.56C263.413 414.235 256.528 416.649 253.201 411.63C249.146 411.668 244.518 411.553 235.109 404.158C225.7 396.763 224.017 390.517 232.011 389.483C240.005 388.448 257.446 394.694 257.446 394.694L263.489 396.916Z" fill="#5A2255"/>
<path d="M313.48 371.092V427.608C313.48 427.608 313.48 427.685 313.48 427.723C313.48 429.447 310.88 430.827 307.667 430.827C304.454 430.827 301.853 429.447 301.853 427.723C301.853 427.685 301.853 427.608 301.853 427.608V371.092H313.48Z" fill="#89CAEF"/>
<path d="M307.706 368.026C310.919 368.026 313.52 369.406 313.52 371.13C313.52 372.854 310.919 374.234 307.706 374.234C304.493 374.234 301.892 372.854 301.892 371.13C301.892 369.406 304.493 368.026 307.706 368.026Z" fill="#DCE6F9"/>
<path d="M284.836 425.616C284.836 423.125 283.306 420.213 281.47 419.14C281.011 418.872 280.437 418.719 279.978 418.719C279.634 418.719 278.755 418.757 277.798 419.332C276.727 419.983 276.574 421.478 276.574 421.478L280.361 429.294C280.361 429.294 281.585 429.907 282.847 429.217C283.612 428.796 284.109 428.068 284.3 427.685C284.377 427.531 284.53 427.148 284.568 427.033C284.759 426.65 284.836 426.152 284.836 425.616Z" fill="#3D8CD3"/>
<path d="M276.499 422.589C276.499 425.08 278.029 427.992 279.865 429.065C281.739 430.137 283.23 428.988 283.23 426.497C283.23 424.007 281.701 421.095 279.865 420.022C278.029 418.949 276.499 420.099 276.499 422.589Z" fill="#5C9FEA"/>
<path d="M277.797 423.585C277.797 424.964 278.638 426.535 279.633 427.11C280.666 427.685 281.469 427.072 281.469 425.692C281.469 424.313 280.627 422.742 279.633 422.167C278.6 421.592 277.797 422.205 277.797 423.585Z" fill="white"/>
<path d="M278.106 424.198C278.106 425.003 278.603 425.961 279.215 426.306C279.827 426.651 280.324 426.267 280.324 425.463C280.324 424.658 279.827 423.7 279.215 423.355C278.603 423.011 278.106 423.394 278.106 424.198Z" fill="#5C9FEA"/>
<path d="M343.66 459.64C343.66 457.149 342.13 454.237 340.294 453.165C339.835 452.896 339.262 452.743 338.803 452.743C338.458 452.743 337.579 452.781 336.623 453.356C335.552 454.008 335.399 455.502 335.399 455.502L339.185 463.318C339.185 463.318 340.409 463.931 341.671 463.242C342.436 462.82 342.933 462.092 343.125 461.709C343.201 461.518 343.354 461.173 343.392 461.058C343.584 460.636 343.66 460.176 343.66 459.64Z" fill="#3D8CD3"/>
<path d="M335.323 456.614C335.323 459.104 336.853 462.016 338.689 463.089C340.563 464.162 342.055 463.012 342.055 460.522C342.055 458.031 340.525 455.119 338.689 454.046C336.853 452.974 335.323 454.123 335.323 456.614Z" fill="#5C9FEA"/>
<path d="M336.621 457.609C336.621 458.989 337.463 460.56 338.457 461.134C339.49 461.709 340.293 461.096 340.293 459.717C340.293 458.337 339.452 456.766 338.457 456.192C337.463 455.617 336.621 456.23 336.621 457.609Z" fill="white"/>
<path d="M336.965 458.222C336.965 459.027 337.462 459.985 338.074 460.33C338.686 460.675 339.184 460.292 339.184 459.487C339.184 458.682 338.686 457.724 338.074 457.38C337.424 457.035 336.965 457.38 336.965 458.222Z" fill="#5C9FEA"/>
<path d="M331.305 425.309C331.305 422.818 332.835 419.906 334.671 418.834C335.13 418.565 335.703 418.412 336.162 418.412C336.507 418.412 337.386 418.45 338.342 419.025C339.413 419.677 339.566 421.171 339.566 421.171L335.78 428.987C335.78 428.987 334.556 429.6 333.294 428.911C332.529 428.489 332.032 427.761 331.84 427.378C331.764 427.225 331.611 426.842 331.573 426.727C331.381 426.344 331.305 425.845 331.305 425.309Z" fill="#3D8CD3"/>
<path d="M339.645 422.282C339.645 424.773 338.115 427.685 336.279 428.758C334.405 429.831 332.913 428.681 332.913 426.191C332.913 423.7 334.443 420.788 336.279 419.715C338.115 418.642 339.645 419.792 339.645 422.282Z" fill="#5C9FEA"/>
<path d="M338.344 423.278C338.344 424.658 337.502 426.229 336.508 426.803C335.475 427.378 334.672 426.765 334.672 425.386C334.672 424.006 335.513 422.435 336.508 421.86C337.541 421.286 338.344 421.899 338.344 423.278Z" fill="white"/>
<path d="M338.039 423.892C338.039 424.696 337.542 425.654 336.93 425.999C336.318 426.344 335.821 425.961 335.821 425.156C335.821 424.352 336.318 423.394 336.93 423.049C337.542 422.704 338.039 423.087 338.039 423.892Z" fill="#5C9FEA"/>
<path d="M271.754 459.64C271.754 457.149 273.284 454.237 275.12 453.165C275.579 452.896 276.153 452.743 276.612 452.743C276.956 452.743 277.835 452.781 278.792 453.356C279.863 454.008 280.016 455.502 280.016 455.502L276.229 463.318C276.229 463.318 275.005 463.931 273.743 463.242C272.978 462.82 272.481 462.092 272.29 461.709C272.213 461.518 272.06 461.173 272.022 461.058C271.831 460.636 271.754 460.176 271.754 459.64Z" fill="#3D8CD3"/>
<path d="M280.094 456.614C280.094 459.104 278.564 462.016 276.728 463.089C274.854 464.162 273.362 463.012 273.362 460.522C273.362 458.031 274.892 455.119 276.728 454.046C278.564 452.974 280.094 454.123 280.094 456.614Z" fill="#5C9FEA"/>
<path d="M278.793 457.609C278.793 458.989 277.952 460.56 276.957 461.134C275.924 461.709 275.121 461.096 275.121 459.717C275.121 458.337 275.963 456.766 276.957 456.192C277.952 455.617 278.793 456.23 278.793 457.609Z" fill="white"/>
<path d="M278.449 458.222C278.449 459.027 277.952 459.985 277.34 460.33C276.728 460.675 276.231 460.292 276.231 459.487C276.231 458.682 276.728 457.724 277.34 457.38C277.952 457.035 278.449 457.38 278.449 458.222Z" fill="#5C9FEA"/>
<path d="M279.976 418.335C285.063 419.14 307.706 423.431 307.706 423.431C307.706 423.431 330.349 445.31 335.436 450.406C340.523 455.502 338.802 462.322 338.802 462.322L336.622 461.058C336.622 461.058 335.895 456.613 333.064 454.007C331.649 452.705 319.716 440.788 307.783 433.891C295.849 426.995 283.916 425.079 282.501 424.734C279.632 424.044 278.943 427.684 278.943 427.684L276.075 426.037C275.998 425.998 274.889 417.531 279.976 418.335Z" fill="#89CAEF"/>
<path d="M335.4 418.335C330.313 419.14 307.67 423.431 307.67 423.431C307.67 423.431 285.027 445.31 279.94 450.406C276.919 453.433 275.351 456.728 275.236 460.176C275.198 462.054 276.651 462.284 276.651 462.284L278.793 461.058C278.793 461.058 279.52 456.613 282.35 454.007C283.765 452.705 295.699 440.788 307.632 433.891C319.565 426.995 332.876 424.542 334.291 424.198C335.094 424.006 335.477 424.849 335.936 425.998C336.433 427.186 336.471 427.684 336.471 427.684L339.34 426.037C339.416 425.998 340.487 417.531 335.4 418.335Z" fill="#89CAEF"/>
<path d="M276.152 462.054C276.152 459.564 277.682 456.652 279.518 455.579C279.977 455.31 280.551 455.157 281.01 455.157C281.354 455.157 282.234 455.196 283.19 455.77C284.261 456.422 284.414 457.916 284.414 457.916L280.628 465.732C280.628 465.732 279.404 466.346 278.141 465.656C277.376 465.234 276.879 464.506 276.688 464.123C276.611 463.97 276.458 463.587 276.42 463.472C276.229 463.089 276.152 462.629 276.152 462.054Z" fill="#3D8CD3"/>
<path d="M284.492 459.066C284.492 461.556 282.962 464.468 281.126 465.541C279.252 466.614 277.761 465.464 277.761 462.974C277.761 460.483 279.29 457.571 281.126 456.499C282.962 455.426 284.492 456.575 284.492 459.066Z" fill="#5C9FEA"/>
<path d="M283.191 460.024C283.191 461.403 282.35 462.974 281.355 463.549C280.323 464.124 279.52 463.51 279.52 462.131C279.52 460.752 280.361 459.181 281.355 458.606C282.35 458.031 283.191 458.683 283.191 460.024Z" fill="white"/>
<path d="M282.887 460.637C282.887 461.442 282.389 462.399 281.778 462.744C281.166 463.089 280.668 462.706 280.668 461.901C280.668 461.097 281.166 460.139 281.778 459.794C282.389 459.449 282.887 459.832 282.887 460.637Z" fill="#5C9FEA"/>
<path d="M339.262 462.054C339.262 459.564 337.732 456.652 335.896 455.579C335.437 455.31 334.863 455.157 334.404 455.157C334.06 455.157 333.18 455.196 332.224 455.77C331.153 456.422 331 457.916 331 457.916L334.787 465.732C334.787 465.732 336.011 466.346 337.273 465.656C338.038 465.234 338.535 464.506 338.726 464.123C338.803 463.97 338.956 463.587 338.994 463.472C339.185 463.089 339.262 462.629 339.262 462.054Z" fill="#3D8CD3"/>
<path d="M330.925 459.066C330.925 461.556 332.455 464.468 334.29 465.541C336.165 466.614 337.656 465.464 337.656 462.974C337.656 460.483 336.126 457.571 334.29 456.499C332.455 455.426 330.925 456.575 330.925 459.066Z" fill="#5C9FEA"/>
<path d="M332.223 460.024C332.223 461.403 333.064 462.974 334.059 463.549C335.091 464.124 335.895 463.51 335.895 462.131C335.895 460.752 335.053 459.181 334.059 458.606C333.026 458.031 332.223 458.683 332.223 460.024Z" fill="white"/>
<path d="M332.532 460.637C332.532 461.442 333.029 462.399 333.641 462.744C334.253 463.089 334.75 462.706 334.75 461.901C334.75 461.097 334.253 460.139 333.641 459.794C333.029 459.449 332.532 459.832 332.532 460.637Z" fill="#5C9FEA"/>
<path d="M280.438 428.068C280.438 425.577 278.908 422.665 277.072 421.592C276.613 421.324 276.039 421.171 275.58 421.171C275.236 421.171 274.356 421.209 273.4 421.784C272.329 422.435 272.176 423.93 272.176 423.93L275.962 431.746C275.962 431.746 277.186 432.359 278.449 431.67C279.214 431.248 279.711 430.52 279.902 430.137C279.979 429.984 280.132 429.6 280.17 429.485C280.361 429.064 280.438 428.604 280.438 428.068Z" fill="#3D8CD3"/>
<path d="M272.1 425.041C272.1 427.532 273.63 430.444 275.466 431.517C277.34 432.59 278.832 431.44 278.832 428.949C278.832 426.459 277.302 423.547 275.466 422.474C273.592 421.401 272.1 422.551 272.1 425.041Z" fill="#5C9FEA"/>
<path d="M273.398 425.998C273.398 427.378 274.24 428.949 275.234 429.523C276.267 430.098 277.07 429.485 277.07 428.106C277.07 426.726 276.229 425.155 275.234 424.581C274.202 424.006 273.398 424.657 273.398 425.998Z" fill="white"/>
<path d="M273.707 426.611C273.707 427.416 274.205 428.374 274.817 428.719C275.429 429.064 275.926 428.681 275.926 427.876C275.926 427.071 275.429 426.113 274.817 425.769C274.205 425.424 273.707 425.807 273.707 426.611Z" fill="#5C9FEA"/>
<path d="M335.703 427.761C335.703 425.271 337.233 422.359 339.069 421.286C339.528 421.018 340.102 420.864 340.561 420.864C340.905 420.864 341.785 420.903 342.741 421.477C343.812 422.129 343.965 423.623 343.965 423.623L340.178 431.439C340.178 431.439 338.954 432.053 337.692 431.363C336.927 430.941 336.43 430.213 336.239 429.83C336.162 429.677 336.009 429.294 335.971 429.179C335.78 428.757 335.703 428.298 335.703 427.761Z" fill="#3D8CD3"/>
<path d="M344.043 424.735C344.043 427.225 342.513 430.137 340.677 431.21C338.803 432.283 337.311 431.133 337.311 428.643C337.311 426.152 338.841 423.24 340.677 422.167C342.551 421.095 344.043 422.244 344.043 424.735Z" fill="#5C9FEA"/>
<path d="M342.742 425.73C342.742 427.11 341.901 428.681 340.906 429.255C339.874 429.83 339.07 429.217 339.07 427.838C339.07 426.458 339.912 424.887 340.906 424.313C341.939 423.738 342.742 424.351 342.742 425.73Z" fill="white"/>
<path d="M342.438 426.344C342.438 427.148 341.94 428.106 341.328 428.451C340.716 428.796 340.219 428.413 340.219 427.608C340.219 426.803 340.716 425.845 341.328 425.501C341.94 425.156 342.438 425.501 342.438 426.344Z" fill="#5C9FEA"/>
<path d="M278.445 378.678L264.37 399.522C264.37 399.522 257.6 400.901 252.781 397.989C247.962 395.039 245.858 391.629 245.858 391.629C245.858 391.629 260.086 366.302 260.928 366.838C261.769 367.375 278.445 378.678 278.445 378.678Z" fill="#7F3371"/>
<path d="M323.657 385.422C339.721 374.425 345.688 356.034 345.688 334.96H340.295C340.295 354.233 335.131 371.015 320.635 380.978L323.657 385.422Z" fill="#DCE6F9"/>
<path d="M341.363 375.153V385.767C341.363 385.767 341.363 386.227 341.363 386.457C341.363 396.38 326.255 404.427 307.628 404.427C289.002 404.427 273.894 396.38 273.894 386.457C273.894 386.227 273.894 385.767 273.894 385.767V375.153H341.363Z" fill="#89CAEF"/>
<path d="M346.184 372.548V378.334C346.184 378.334 346.184 378.87 346.184 379.138C346.184 390.403 329.048 399.561 307.897 399.561C286.746 399.561 269.611 390.441 269.611 379.138C269.611 378.87 269.611 378.334 269.611 378.334V372.548H346.184Z" fill="#E23D52"/>
<path d="M307.897 352.125C329.048 352.125 346.184 361.244 346.184 372.547C346.184 383.812 329.048 392.97 307.897 392.97C286.746 392.97 269.611 383.851 269.611 372.547C269.611 361.283 286.746 352.125 307.897 352.125Z" fill="#FF5A72"/>
<path d="M272.594 268.098C272.594 268.098 270.796 263.347 267.354 258.251C265.862 256.029 265.48 253.577 264.676 253.002C263.07 251.891 262.573 253.423 262.802 255.033C263.146 257.446 264.944 261.853 259.551 259.171C254.158 256.45 251.098 254.841 248.65 254.573C247.197 254.419 246.05 255.033 246.929 255.99C245.399 256.182 244.94 257.178 245.82 258.404C244.94 258.213 244.405 259.439 245.514 260.742C244.328 261.086 244.558 262.006 247.771 264.267C253.737 268.481 266.857 272.39 266.857 272.39L272.594 268.098Z" fill="#FFC9B6"/>
<path d="M181.297 287.217C181.297 286.259 180.723 285.11 179.996 284.688C179.69 284.497 179.384 284.497 179.155 284.612L159.495 295.877L161.331 299.517L180.8 288.328C181.067 288.137 181.297 287.754 181.297 287.217Z" fill="#7F3371"/>
<path d="M161.715 298.443C161.715 299.401 161.141 299.861 160.414 299.44C159.688 299.018 159.114 297.907 159.114 296.911C159.114 295.914 159.688 295.493 160.414 295.914C161.141 296.336 161.715 297.485 161.715 298.443Z" fill="#5A2255"/>
<path d="M205.621 273.194C205.621 272.236 205.047 271.086 204.321 270.665C204.015 270.473 203.709 270.473 203.479 270.588L183.82 281.853L185.656 285.493L205.124 274.305C205.392 274.152 205.621 273.768 205.621 273.194Z" fill="#7F3371"/>
<path d="M186.039 284.458C186.039 285.416 185.465 285.876 184.739 285.454C184.012 285.033 183.438 283.922 183.438 282.926C183.438 281.968 184.012 281.508 184.739 281.929C185.465 282.351 186.039 283.462 186.039 284.458Z" fill="#5A2255"/>
<path d="M245.861 294.65C245.861 294.689 245.861 292.428 245.861 292.428C245.861 292.428 243.566 291.853 243.604 291.93C243.604 291.93 243.604 292.045 243.642 292.16L213.235 274.573C211.17 273.385 208.033 273.232 206.236 274.266L162.595 299.516C161.868 299.44 160.721 299.363 160.721 299.363V301.624C160.721 302.428 161.294 303.271 162.442 303.961L193.384 321.855C195.45 323.042 198.586 323.196 200.384 322.161L244.675 296.528C245.516 296.03 245.899 295.34 245.861 294.65Z" fill="#7F3371"/>
<path d="M200.344 319.9C198.547 320.935 195.41 320.82 193.345 319.594L162.402 301.7C160.337 300.512 160.107 298.712 161.905 297.677L206.235 272.044C208.032 271.009 211.169 271.124 213.234 272.35L244.177 290.244C246.242 291.432 246.472 293.232 244.674 294.267L200.344 319.9Z" fill="#8C447E"/>
<path d="M244.254 294.037L199.963 319.67C198.394 320.59 195.564 320.475 193.766 319.402L162.824 301.508C160.988 300.436 160.797 298.826 162.365 297.907L206.656 272.273C208.224 271.354 211.055 271.469 212.852 272.541L243.795 290.435C245.631 291.508 245.822 293.117 244.254 294.037Z" fill="#954A83"/>
<path d="M172.613 301.738L171.274 302.505C170.853 302.773 170.088 302.735 169.591 302.428L168.023 301.509C167.526 301.202 167.449 300.781 167.908 300.512L169.285 299.708C169.706 299.439 170.471 299.478 170.968 299.784L172.46 300.742C172.995 301.049 173.033 301.47 172.613 301.738Z" fill="#CFE9FF"/>
<path d="M176.478 299.478L175.139 300.283C174.718 300.551 173.953 300.513 173.456 300.206L171.888 299.287C171.391 298.98 171.314 298.559 171.773 298.29L173.112 297.524C173.532 297.256 174.297 297.294 174.795 297.601L176.363 298.52C176.822 298.789 176.898 299.248 176.478 299.478Z" fill="#CFE9FF"/>
<path d="M180.341 297.256L179.003 298.022C178.582 298.291 177.817 298.252 177.32 297.946L175.751 297.026C175.254 296.72 175.178 296.298 175.637 296.03L177.014 295.225C177.434 294.957 178.199 294.995 178.697 295.302L180.265 296.221C180.685 296.566 180.762 297.026 180.341 297.256Z" fill="#CFE9FF"/>
<path d="M184.164 295.033L182.826 295.8C182.405 296.068 181.64 296.03 181.143 295.723L179.575 294.803C179.077 294.497 179.001 294.075 179.46 293.807L180.837 293.003C181.257 292.734 182.022 292.773 182.52 293.079L184.088 293.999C184.547 294.344 184.623 294.765 184.164 295.033Z" fill="#CFE9FF"/>
<path d="M188.027 292.81L186.65 293.577C186.229 293.845 185.464 293.807 184.967 293.5L183.399 292.581C182.902 292.274 182.825 291.853 183.284 291.584L184.623 290.818C185.043 290.55 185.808 290.588 186.306 290.895L187.874 291.814C188.409 292.121 188.486 292.542 188.027 292.81Z" fill="#CFE9FF"/>
<path d="M191.891 290.551L190.552 291.317C190.131 291.585 189.366 291.547 188.869 291.24L187.301 290.321C186.804 290.014 186.727 289.593 187.186 289.325L188.525 288.558C188.945 288.29 189.71 288.328 190.208 288.635L191.776 289.554C192.273 289.861 192.35 290.321 191.891 290.551Z" fill="#CFE9FF"/>
<path d="M195.753 288.328L194.376 289.132C193.956 289.401 193.191 289.362 192.693 289.056L191.125 288.136C190.628 287.83 190.552 287.408 191.011 287.14L192.349 286.374C192.77 286.105 193.535 286.144 194.032 286.45L195.6 287.37C196.136 287.638 196.212 288.098 195.753 288.328Z" fill="#CFE9FF"/>
<path d="M199.617 286.106L198.278 286.872C197.858 287.14 197.093 287.102 196.596 286.795L195.027 285.876C194.53 285.569 194.454 285.148 194.913 284.879L196.251 284.075C196.672 283.807 197.437 283.845 197.934 284.152L199.502 285.071C200 285.416 200.076 285.837 199.617 286.106Z" fill="#CFE9FF"/>
<path d="M176.859 304.19L175.521 304.957C175.1 305.225 174.335 305.187 173.838 304.88L172.269 303.96C171.772 303.654 171.696 303.232 172.155 302.964L173.493 302.198C173.914 301.93 174.679 301.968 175.176 302.275L176.744 303.194C177.242 303.501 177.28 303.922 176.859 304.19Z" fill="#CFE9FF"/>
<path d="M180.722 301.969L179.384 302.735C178.963 303.003 178.198 302.965 177.701 302.658L176.133 301.739C175.635 301.432 175.559 301.011 176.018 300.743L177.357 299.976C177.777 299.708 178.542 299.746 179.04 300.053L180.608 300.972C181.105 301.279 181.143 301.7 180.722 301.969Z" fill="#CFE9FF"/>
<path d="M184.585 299.708L183.209 300.512C182.788 300.781 182.023 300.742 181.526 300.436L179.957 299.516C179.46 299.21 179.384 298.788 179.843 298.52L181.181 297.754C181.602 297.485 182.367 297.524 182.864 297.83L184.432 298.75C184.968 299.018 185.006 299.478 184.585 299.708Z" fill="#CFE9FF"/>
<path d="M188.449 297.485L187.11 298.252C186.69 298.52 185.925 298.481 185.427 298.175L183.859 297.255C183.362 296.949 183.286 296.527 183.745 296.259L185.083 295.493C185.504 295.225 186.269 295.263 186.766 295.569L188.334 296.489C188.832 296.796 188.87 297.255 188.449 297.485Z" fill="#CFE9FF"/>
<path d="M192.312 295.263L190.974 296.029C190.553 296.297 189.788 296.259 189.291 295.952L187.723 295.033C187.225 294.726 187.149 294.305 187.608 294.036L188.946 293.27C189.367 293.002 190.132 293.04 190.629 293.347L192.198 294.266C192.695 294.573 192.733 294.994 192.312 295.263Z" fill="#CFE9FF"/>
<path d="M196.176 293.04L194.837 293.806C194.416 294.074 193.651 294.036 193.154 293.73L191.586 292.81C191.089 292.504 191.012 292.082 191.471 291.814L192.848 291.048C193.269 290.779 194.034 290.818 194.531 291.124L196.099 292.044C196.558 292.35 196.596 292.772 196.176 293.04Z" fill="#CFE9FF"/>
<path d="M200.039 290.779L198.7 291.546C198.279 291.814 197.514 291.775 197.017 291.469L195.411 290.588C194.914 290.281 194.837 289.86 195.296 289.591L196.673 288.787C197.094 288.519 197.859 288.557 198.356 288.863L199.924 289.783C200.421 290.09 200.46 290.549 200.039 290.779Z" fill="#CFE9FF"/>
<path d="M203.903 288.557L202.526 289.362C202.106 289.63 201.341 289.592 200.843 289.285L199.275 288.366C198.778 288.059 198.702 287.638 199.161 287.37L200.537 286.603C200.958 286.335 201.723 286.373 202.22 286.68L203.789 287.599C204.248 287.868 204.324 288.327 203.903 288.557Z" fill="#CFE9FF"/>
<path d="M207.767 286.335L206.428 287.101C206.007 287.369 205.242 287.331 204.745 287.025L203.177 286.105C202.68 285.798 202.603 285.377 203.062 285.109L204.401 284.342C204.821 284.074 205.586 284.113 206.084 284.419L207.652 285.339C208.111 285.645 208.187 286.067 207.767 286.335Z" fill="#CFE9FF"/>
<path d="M211.589 284.112L210.212 284.879C209.792 285.147 209.027 285.109 208.529 284.802L206.961 283.883C206.464 283.576 206.388 283.155 206.847 282.886L208.185 282.082C208.606 281.813 209.371 281.852 209.868 282.158L211.436 283.078C211.972 283.384 212.048 283.844 211.589 284.112Z" fill="#CFE9FF"/>
<path d="M215.453 281.852L214.114 282.619C213.694 282.887 212.929 282.849 212.431 282.542L210.863 281.623C210.366 281.316 210.29 280.895 210.749 280.626L212.087 279.86C212.508 279.592 213.273 279.63 213.77 279.937L215.338 280.856C215.836 281.163 215.912 281.623 215.453 281.852Z" fill="#CFE9FF"/>
<path d="M219.316 279.63L217.978 280.396C217.557 280.664 216.792 280.626 216.295 280.32L214.727 279.4C214.229 279.093 214.153 278.672 214.612 278.404L215.95 277.637C216.371 277.369 217.136 277.407 217.633 277.714L219.202 278.634C219.699 278.94 219.775 279.362 219.316 279.63Z" fill="#CFE9FF"/>
<path d="M181.101 306.643L179.724 307.41C179.303 307.678 178.538 307.64 178.041 307.333L176.473 306.414C175.976 306.107 175.899 305.686 176.358 305.417L177.697 304.651C178.118 304.383 178.883 304.421 179.38 304.728L180.948 305.647C181.483 305.954 181.56 306.414 181.101 306.643Z" fill="#CFE9FF"/>
<path d="M184.965 304.421L183.626 305.187C183.205 305.456 182.44 305.417 181.943 305.111L180.375 304.191C179.878 303.885 179.801 303.463 180.26 303.195L181.599 302.39C182.02 302.122 182.785 302.16 183.282 302.467L184.85 303.387C185.347 303.731 185.424 304.153 184.965 304.421Z" fill="#CFE9FF"/>
<path d="M188.828 302.199L187.489 303.004C187.069 303.272 186.304 303.233 185.806 302.927L184.238 302.007C183.741 301.701 183.665 301.279 184.124 301.011L185.462 300.245C185.883 299.977 186.648 300.015 187.145 300.321L188.713 301.241C189.211 301.509 189.287 301.931 188.828 302.199Z" fill="#CFE9FF"/>
<path d="M192.691 299.938L191.353 300.743C190.932 301.011 190.167 300.973 189.67 300.666L188.102 299.747C187.604 299.44 187.528 299.019 187.987 298.75L189.325 297.984C189.746 297.716 190.511 297.754 191.008 298.061L192.577 298.98C193.074 299.248 193.15 299.708 192.691 299.938Z" fill="#CFE9FF"/>
<path d="M196.554 297.716L195.216 298.482C194.795 298.75 194.03 298.712 193.533 298.405L191.965 297.486C191.468 297.179 191.391 296.758 191.85 296.49L193.189 295.723C193.609 295.455 194.374 295.493 194.872 295.8L196.44 296.72C196.937 297.026 196.975 297.486 196.554 297.716Z" fill="#CFE9FF"/>
<path d="M200.417 295.493L199.041 296.298C198.62 296.566 197.855 296.527 197.358 296.221L195.789 295.301C195.292 294.995 195.216 294.573 195.675 294.305L197.013 293.539C197.434 293.271 198.199 293.309 198.696 293.615L200.264 294.535C200.8 294.803 200.838 295.225 200.417 295.493Z" fill="#CFE9FF"/>
<path d="M204.281 293.271L202.942 294.037C202.522 294.305 201.757 294.267 201.259 293.96L199.691 293.041C199.194 292.734 199.118 292.313 199.577 292.045L200.915 291.24C201.336 290.972 202.101 291.01 202.598 291.317L204.166 292.236C204.664 292.581 204.702 293.002 204.281 293.271Z" fill="#CFE9FF"/>
<path d="M212.008 288.788L206.806 291.815C206.385 292.083 205.62 292.045 205.123 291.738L203.555 290.819C203.058 290.512 202.981 290.091 203.44 289.823L208.642 286.796C209.063 286.527 209.827 286.566 210.325 286.872L211.893 287.792C212.39 288.098 212.428 288.558 212.008 288.788Z" fill="#CFE9FF"/>
<path d="M215.871 286.566L214.494 287.371C214.073 287.639 213.308 287.601 212.811 287.294L211.243 286.375C210.745 286.068 210.669 285.647 211.128 285.378L212.467 284.612C212.887 284.344 213.652 284.382 214.149 284.689L215.718 285.608C216.253 285.876 216.291 286.298 215.871 286.566Z" fill="#CFE9FF"/>
<path d="M219.734 284.344L218.357 285.11C217.936 285.378 217.171 285.34 216.674 285.033L215.106 284.114C214.609 283.807 214.532 283.386 214.991 283.118L216.33 282.351C216.751 282.083 217.515 282.121 218.013 282.428L219.581 283.347C220.116 283.616 220.155 284.075 219.734 284.344Z" fill="#CFE9FF"/>
<path d="M223.597 282.083L222.259 282.849C221.838 283.117 221.073 283.079 220.576 282.773L219.008 281.853C218.51 281.546 218.434 281.125 218.893 280.857L220.232 280.09C220.652 279.822 221.417 279.861 221.915 280.167L223.483 281.087C223.98 281.393 224.018 281.853 223.597 282.083Z" fill="#CFE9FF"/>
<path d="M185.387 309.133L184.048 309.938C183.627 310.206 182.862 310.168 182.365 309.861L180.797 308.942C180.3 308.635 180.223 308.214 180.682 307.946L182.059 307.179C182.48 306.911 183.245 306.949 183.742 307.256L185.31 308.176C185.769 308.444 185.807 308.865 185.387 309.133Z" fill="#CFE9FF"/>
<path d="M189.25 306.873L187.911 307.678C187.491 307.946 186.726 307.908 186.228 307.601L184.66 306.681C184.163 306.375 184.086 305.953 184.545 305.685L185.922 304.881C186.343 304.612 187.108 304.651 187.605 304.957L189.173 305.877C189.632 306.183 189.671 306.643 189.25 306.873Z" fill="#CFE9FF"/>
<path d="M193.113 304.651L191.736 305.456C191.315 305.724 190.55 305.686 190.053 305.379L188.485 304.459C187.988 304.153 187.911 303.731 188.37 303.463L189.709 302.697C190.129 302.429 190.894 302.467 191.392 302.774L192.96 303.693C193.495 303.961 193.533 304.421 193.113 304.651Z" fill="#CFE9FF"/>
<path d="M196.977 302.428L195.6 303.233C195.179 303.501 194.414 303.463 193.917 303.156L192.349 302.237C191.852 301.93 191.813 301.509 192.234 301.241L193.573 300.474C193.994 300.206 194.759 300.244 195.256 300.551L196.824 301.471C197.321 301.739 197.398 302.16 196.977 302.428Z" fill="#CFE9FF"/>
<path d="M200.801 300.206L199.462 300.972C199.041 301.241 198.276 301.202 197.779 300.896L196.211 299.976C195.714 299.67 195.637 299.248 196.096 298.98L197.435 298.214C197.856 297.945 198.621 297.984 199.118 298.29L200.686 299.21C201.183 299.478 201.26 299.938 200.801 300.206Z" fill="#CFE9FF"/>
<path d="M204.664 297.946L203.325 298.751C202.905 299.019 202.14 298.981 201.642 298.674L200.074 297.754C199.577 297.448 199.5 297.026 199.959 296.758L201.298 295.992C201.719 295.724 202.484 295.762 202.981 296.068L204.549 296.988C205.046 297.256 205.123 297.716 204.664 297.946Z" fill="#CFE9FF"/>
<path d="M208.527 295.724L207.189 296.528C206.768 296.796 206.003 296.758 205.506 296.452L203.937 295.532C203.44 295.225 203.364 294.804 203.823 294.536L205.161 293.731C205.582 293.463 206.347 293.501 206.844 293.808L208.413 294.727C208.91 295.034 208.986 295.455 208.527 295.724Z" fill="#CFE9FF"/>
<path d="M212.391 293.501L211.052 294.306C210.631 294.574 209.866 294.535 209.369 294.229L207.801 293.309C207.304 293.003 207.227 292.581 207.686 292.313L209.063 291.508C209.484 291.24 210.249 291.279 210.746 291.585L212.314 292.505C212.773 292.811 212.85 293.233 212.391 293.501Z" fill="#CFE9FF"/>
<path d="M216.254 291.24L214.915 292.045C214.495 292.313 213.73 292.274 213.233 291.968L211.664 291.048C211.167 290.742 211.091 290.32 211.55 290.052L212.927 289.286C213.347 289.018 214.112 289.056 214.609 289.362L216.178 290.282C216.637 290.55 216.713 291.01 216.254 291.24Z" fill="#CFE9FF"/>
<path d="M220.117 289.018L218.74 289.784C218.319 290.052 217.554 290.014 217.057 289.707L215.489 288.788C214.991 288.481 214.915 288.06 215.374 287.792L216.713 286.987C217.133 286.719 217.898 286.757 218.395 287.064L219.964 287.983C220.499 288.328 220.576 288.788 220.117 289.018Z" fill="#CFE9FF"/>
<path d="M223.98 286.796L222.642 287.6C222.221 287.868 221.456 287.83 220.959 287.524L219.391 286.604C218.893 286.298 218.817 285.876 219.276 285.608L220.614 284.841C221.035 284.573 221.8 284.612 222.297 284.918L223.866 285.838C224.363 286.106 224.401 286.527 223.98 286.796Z" fill="#CFE9FF"/>
<path d="M227.844 284.573L226.505 285.378C226.084 285.646 225.319 285.608 224.822 285.301L223.254 284.382C222.757 284.075 222.68 283.654 223.139 283.385L224.478 282.581C224.898 282.313 225.663 282.351 226.161 282.657L227.729 283.577C228.226 283.883 228.264 284.305 227.844 284.573Z" fill="#CFE9FF"/>
<path d="M189.633 311.586L188.294 312.39C187.873 312.658 187.108 312.62 186.611 312.314L185.043 311.394C184.546 311.088 184.469 310.666 184.928 310.398L186.267 309.632C186.688 309.363 187.452 309.402 187.95 309.708L189.518 310.628C190.015 310.896 190.053 311.317 189.633 311.586Z" fill="#CFE9FF"/>
<path d="M193.496 309.363L192.157 310.168C191.736 310.436 190.972 310.398 190.474 310.091L188.906 309.171C188.409 308.865 188.332 308.443 188.791 308.175L190.13 307.409C190.551 307.141 191.316 307.179 191.813 307.485L193.381 308.405C193.878 308.673 193.917 309.095 193.496 309.363Z" fill="#CFE9FF"/>
<path d="M197.359 307.102L196.021 307.869C195.6 308.137 194.835 308.099 194.338 307.792L192.77 306.873C192.272 306.566 192.196 306.145 192.655 305.876L194.032 305.11C194.452 304.842 195.217 304.88 195.715 305.187L197.283 306.106C197.742 306.413 197.78 306.873 197.359 307.102Z" fill="#CFE9FF"/>
<path d="M212.812 298.175L199.884 305.646C199.464 305.915 198.699 305.876 198.202 305.57L196.633 304.65C196.136 304.344 196.06 303.922 196.519 303.654L209.446 296.182C209.867 295.914 210.632 295.952 211.129 296.259L212.698 297.178C213.195 297.485 213.233 297.945 212.812 298.175Z" fill="#CFE9FF"/>
<path d="M216.676 295.953L215.337 296.758C214.916 297.026 214.151 296.988 213.654 296.681L212.086 295.761C211.589 295.455 211.512 295.033 211.971 294.765L213.31 293.961C213.73 293.692 214.495 293.731 214.993 294.037L216.561 294.957C217.058 295.263 217.096 295.685 216.676 295.953Z" fill="#CFE9FF"/>
<path d="M220.54 293.731L219.201 294.497C218.781 294.765 218.016 294.727 217.518 294.42L215.95 293.501C215.453 293.194 215.377 292.773 215.835 292.504L217.174 291.7C217.595 291.432 218.36 291.47 218.857 291.777L220.425 292.696C220.884 293.041 220.961 293.462 220.54 293.731Z" fill="#CFE9FF"/>
<path d="M224.4 291.47L223.061 292.236C222.64 292.504 221.875 292.466 221.378 292.16L219.81 291.24C219.313 290.933 219.236 290.512 219.695 290.244L221.072 289.439C221.493 289.171 222.258 289.209 222.755 289.516L224.323 290.435C224.744 290.78 224.821 291.24 224.4 291.47Z" fill="#CFE9FF"/>
<path d="M228.226 289.247L226.85 290.014C226.429 290.282 225.664 290.243 225.167 289.937L223.598 289.017C223.101 288.711 223.025 288.289 223.484 288.021L224.861 287.216C225.281 286.948 226.046 286.987 226.544 287.293L228.112 288.213C228.609 288.558 228.685 289.017 228.226 289.247Z" fill="#CFE9FF"/>
<path d="M232.089 287.025L230.712 287.83C230.292 288.098 229.527 288.06 229.029 287.753L227.461 286.834C226.964 286.527 226.888 286.105 227.346 285.837L228.685 285.071C229.106 284.803 229.871 284.841 230.368 285.148L231.936 286.067C232.472 286.335 232.548 286.757 232.089 287.025Z" fill="#CFE9FF"/>
<path d="M203.48 283.883L202.142 284.649C201.721 284.918 200.956 284.879 200.459 284.573L198.891 283.653C198.393 283.347 198.317 282.925 198.776 282.657L200.114 281.852C200.535 281.584 201.3 281.622 201.797 281.929L203.366 282.848C203.863 283.155 203.901 283.615 203.48 283.883Z" fill="#CFE9FF"/>
<path d="M207.344 281.622L206.005 282.388C205.584 282.657 204.819 282.618 204.322 282.312L202.754 281.392C202.257 281.086 202.18 280.664 202.639 280.396L204.016 279.63C204.437 279.361 205.202 279.4 205.699 279.706L207.267 280.626C207.726 280.932 207.764 281.392 207.344 281.622Z" fill="#CFE9FF"/>
<path d="M211.207 279.4L209.868 280.166C209.447 280.434 208.682 280.396 208.185 280.089L206.617 279.17C206.12 278.863 206.043 278.442 206.502 278.173L207.841 277.369C208.262 277.101 209.027 277.139 209.524 277.445L211.092 278.365C211.589 278.71 211.628 279.131 211.207 279.4Z" fill="#CFE9FF"/>
<path d="M215.07 277.177L213.693 277.982C213.272 278.25 212.507 278.212 212.01 277.905L210.442 276.986C209.945 276.679 209.868 276.258 210.327 275.99L211.666 275.223C212.086 274.955 212.851 274.993 213.349 275.3L214.917 276.22C215.452 276.488 215.491 276.909 215.07 277.177Z" fill="#CFE9FF"/>
<path d="M211.054 274.534L209.142 275.645C208.874 275.798 208.339 275.798 208.033 275.607L207.421 275.262C207.076 275.07 207.038 274.764 207.344 274.61L209.257 273.499C209.524 273.346 210.06 273.346 210.366 273.538L210.978 273.882C211.322 274.074 211.36 274.381 211.054 274.534Z" fill="#CFE9FF"/>
<path d="M207.191 276.756L205.279 277.868C205.011 278.021 204.475 278.021 204.169 277.829L203.557 277.484C203.213 277.293 203.175 276.986 203.481 276.833L205.393 275.722C205.661 275.569 206.197 275.569 206.502 275.76L207.114 276.105C207.459 276.297 207.497 276.603 207.191 276.756Z" fill="#CFE9FF"/>
<path d="M203.328 279.016L201.415 280.128C201.148 280.281 200.612 280.281 200.306 280.089L199.694 279.706C199.35 279.515 199.312 279.208 199.618 279.055L201.53 277.944C201.798 277.79 202.333 277.79 202.639 277.982L203.251 278.327C203.595 278.557 203.634 278.825 203.328 279.016Z" fill="#CFE9FF"/>
<path d="M199.464 281.239L197.552 282.35C197.284 282.503 196.749 282.503 196.443 282.312L195.831 281.967C195.487 281.775 195.448 281.469 195.754 281.315L197.667 280.204C197.934 280.051 198.47 280.051 198.776 280.243L199.388 280.587C199.732 280.779 199.77 281.086 199.464 281.239Z" fill="#CFE9FF"/>
<path d="M195.601 283.462L193.689 284.573C193.421 284.726 192.886 284.726 192.58 284.534L191.968 284.189C191.623 283.998 191.585 283.691 191.891 283.538L193.803 282.427C194.071 282.274 194.607 282.274 194.913 282.465L195.525 282.81C195.869 283.002 195.907 283.308 195.601 283.462Z" fill="#CFE9FF"/>
<path d="M191.738 285.684L189.825 286.795C189.558 286.949 189.022 286.949 188.716 286.757L188.104 286.412C187.76 286.221 187.722 285.914 188.028 285.761L189.94 284.65C190.208 284.496 190.743 284.496 191.049 284.688L191.661 285.033C192.006 285.263 192.044 285.531 191.738 285.684Z" fill="#CFE9FF"/>
<path d="M187.875 287.944L185.962 289.055C185.694 289.208 185.159 289.208 184.853 289.017L184.241 288.672C183.897 288.48 183.859 288.174 184.165 288.021L186.077 286.909C186.345 286.756 186.88 286.756 187.186 286.948L187.798 287.293C188.142 287.484 188.181 287.752 187.875 287.944Z" fill="#CFE9FF"/>
<path d="M184.051 290.167L182.138 291.278C181.871 291.431 181.335 291.431 181.029 291.239L180.417 290.895C180.073 290.703 180.035 290.396 180.341 290.243L182.253 289.132C182.521 288.979 183.056 288.979 183.362 289.17L183.936 289.515C184.28 289.707 184.319 290.013 184.051 290.167Z" fill="#CFE9FF"/>
<path d="M180.188 292.389L178.276 293.5C178.008 293.654 177.473 293.654 177.167 293.462L176.555 293.117C176.21 292.926 176.172 292.619 176.478 292.466L178.39 291.355C178.658 291.201 179.155 291.201 179.461 291.393L180.112 291.738C180.418 291.929 180.456 292.236 180.188 292.389Z" fill="#CFE9FF"/>
<path d="M176.325 294.65L174.412 295.761C174.145 295.914 173.609 295.914 173.303 295.723L172.691 295.378C172.347 295.186 172.309 294.88 172.615 294.727L174.527 293.615C174.795 293.462 175.33 293.462 175.636 293.654L176.248 293.999C176.554 294.19 176.593 294.458 176.325 294.65Z" fill="#CFE9FF"/>
<path d="M172.462 296.872L170.549 297.983C170.281 298.136 169.746 298.136 169.44 297.945L168.828 297.6C168.484 297.408 168.446 297.102 168.752 296.948L170.664 295.837C170.932 295.684 171.467 295.684 171.773 295.875L172.385 296.22C172.691 296.412 172.729 296.718 172.462 296.872Z" fill="#CFE9FF"/>
<path d="M168.598 299.094L166.686 300.205C166.418 300.359 165.883 300.359 165.577 300.167L164.965 299.822C164.62 299.631 164.582 299.324 164.888 299.171L166.801 298.06C167.068 297.907 167.604 297.907 167.91 298.098L168.522 298.443C168.828 298.635 168.866 298.941 168.598 299.094Z" fill="#CFE9FF"/>
<path d="M225.665 302.773L213.693 309.708C213.004 310.13 211.742 310.053 210.939 309.593L204.819 306.068C204.016 305.608 203.94 304.88 204.628 304.497L216.6 297.562C217.288 297.141 218.55 297.217 219.354 297.677L225.473 301.202C226.277 301.662 226.353 302.39 225.665 302.773Z" fill="#7F3371"/>
<path d="M166.917 305.723L163.513 303.769C163.321 303.654 163.207 303.386 163.207 303.156C163.207 302.926 163.36 302.811 163.513 302.926L166.917 304.88C167.108 304.995 167.223 305.263 167.223 305.493C167.223 305.723 167.108 305.838 166.917 305.723Z" fill="white"/>
<path d="M171.924 308.674L168.52 306.72C168.329 306.605 168.214 306.337 168.214 306.107C168.214 305.877 168.367 305.762 168.52 305.877L171.924 307.831C172.116 307.946 172.23 308.214 172.23 308.444C172.23 308.674 172.116 308.789 171.924 308.674Z" fill="white"/>
<path d="M187.11 317.487L183.706 315.533C183.515 315.418 183.4 315.149 183.4 314.92C183.4 314.69 183.553 314.575 183.706 314.69L187.11 316.644C187.301 316.759 187.416 317.027 187.416 317.257C187.454 317.487 187.301 317.602 187.11 317.487Z" fill="white"/>
<path d="M207.688 226.908L206.119 225.988C205.813 225.797 205.431 225.758 205.01 226.027L158.462 252.924C157.583 253.461 156.818 254.84 156.818 256.028V295.187C156.818 295.8 157.009 296.26 157.353 296.49L159.036 297.448L159.877 295.609L205.01 269.515C205.89 268.979 206.655 267.599 206.655 266.412V228.057C206.961 228.249 207.229 228.44 207.267 228.44L207.688 226.908Z" fill="#7F3371"/>
<path d="M160.147 297.448L206.695 270.55C207.575 270.014 208.34 268.634 208.34 267.447V228.249C208.34 227.061 207.613 226.487 206.695 227.023L160.147 253.921C159.268 254.457 158.503 255.837 158.503 257.025V296.184C158.503 297.41 159.229 297.984 160.147 297.448Z" fill="#8C447E"/>
<path d="M160.529 296.643L206.312 270.167C207.191 269.669 207.918 268.289 207.918 267.101V228.862C207.918 227.674 207.191 227.138 206.312 227.636L160.529 254.112C159.649 254.61 158.922 255.99 158.922 257.178V295.417C158.922 296.605 159.649 297.141 160.529 296.643Z" fill="#954A83"/>
<path d="M190.398 240.203L160.374 257.599V293.309L190.398 275.952V240.203Z" fill="white"/>
<path d="M190.4 240.204V275.953L206.426 266.68V230.97L190.4 240.204Z" fill="#FED03D"/>
<path d="M190.4 240.204V246.334L206.426 237.1V230.97L190.4 240.204Z" fill="#F48C45"/>
<path d="M182.751 242.886C182.751 243.307 183.019 243.499 183.325 243.307C183.631 243.116 183.898 242.618 183.898 242.196C183.898 241.775 183.631 241.583 183.325 241.775C183.019 241.966 182.751 242.464 182.751 242.886Z" fill="white"/>
<path d="M185.543 241.161C185.543 241.506 185.734 241.659 186.002 241.506C186.27 241.353 186.461 240.97 186.461 240.625C186.461 240.28 186.27 240.127 186.002 240.28C185.734 240.433 185.543 240.817 185.543 241.161Z" fill="white"/>
<path d="M158.423 259.132C158.423 259.017 158.576 259.017 158.576 259.132C158.652 260.856 158.576 262.581 158.614 264.266C158.652 265.991 158.614 267.715 158.537 269.401C158.537 269.516 158.346 269.592 158.346 269.363C158.346 266.259 158.078 262.427 158.423 259.132Z" fill="white"/>
<path d="M161.714 253.27C162.938 252.35 168.522 249.131 170.626 248.02C170.932 247.867 171.085 247.905 170.779 248.174C169.172 249.4 163.282 252.886 161.867 253.5C161.714 253.538 161.522 253.423 161.714 253.27Z" fill="white"/>
<path d="M172.995 246.794C174.219 245.874 179.803 242.656 181.907 241.545C182.213 241.391 182.366 241.43 182.06 241.698C180.453 242.924 174.563 246.411 173.148 247.024C172.995 247.062 172.765 246.947 172.995 246.794Z" fill="white"/>
<path d="M206.845 316.223C203.938 317.641 200.917 320.131 197.474 320.514C195.447 320.744 193.802 319.71 192.081 318.79C190.628 317.986 189.174 317.104 187.683 316.338C187.644 316.3 187.606 316.376 187.644 316.415C189.289 317.602 191.01 318.637 192.808 319.633C194.3 320.476 195.868 321.128 197.589 320.974C200.534 320.706 204.435 318.369 206.921 316.338C206.998 316.261 206.921 316.185 206.845 316.223Z" fill="white"/>
<path d="M192.543 251.162L204.323 244.342C204.706 244.112 205.012 243.537 205.012 243.039C205.012 242.541 204.706 242.311 204.323 242.503L192.543 249.323C192.16 249.553 191.854 250.128 191.854 250.626C191.854 251.162 192.16 251.392 192.543 251.162Z" fill="#F48C45"/>
<path d="M192.543 255.568L204.323 248.748C204.706 248.518 205.012 247.944 205.012 247.445C205.012 246.947 204.706 246.717 204.323 246.909L192.543 253.729C192.16 253.959 191.854 254.534 191.854 255.032C191.854 255.568 192.16 255.798 192.543 255.568Z" fill="#F48C45"/>
<path d="M192.543 259.975L204.323 253.154C204.706 252.925 205.012 252.35 205.012 251.852C205.012 251.354 204.706 251.124 204.323 251.315L192.543 258.136C192.16 258.365 191.854 258.94 191.854 259.438C191.854 259.975 192.16 260.205 192.543 259.975Z" fill="#F48C45"/>
<path d="M192.543 264.381L204.323 257.561C204.706 257.331 205.012 256.756 205.012 256.258C205.012 255.76 204.706 255.53 204.323 255.722L192.543 262.542C192.16 262.772 191.854 263.346 191.854 263.845C191.854 264.343 192.16 264.573 192.543 264.381Z" fill="#F48C45"/>
<path d="M327.021 259.63C318.721 254.343 310.191 258.289 308.432 259.63L296.652 280.819C296.652 280.819 290.685 277.677 283.341 272.16C280.128 269.746 280.09 269.669 276.571 267.485C271.064 267.868 269.457 270.895 267.813 275.915C269.19 278.022 276.724 285.417 278.522 287.295C282.844 291.893 283.8 297.295 283.8 297.295L300.4 301.357C300.4 301.357 321.475 314.921 331.572 299.403C341.708 283.923 335.32 264.918 327.021 259.63Z" fill="#F8B505"/>
<path d="M267.315 347.374C267.851 347.298 274.544 348.371 275.156 348.294C285.521 356.685 295.619 363.889 306.94 367.414C315.89 377.912 326.294 371.743 329.621 368.295C339.069 358.524 336.582 343.236 334.249 338.14C333.446 336.339 327.365 341.052 322.163 338.868C318.759 337.412 302.35 334.73 286.171 327.948C283.647 326.875 269.228 326.262 267.353 328.906C262.496 335.765 264.485 339.29 267.315 347.374Z" fill="#7F3371"/>
<path d="M326.984 348.141C326.601 324.423 297.877 346.225 292.446 344.577C288.889 343.504 276.267 336.684 258.711 336.454C248.461 336.339 227.654 397.147 225.856 404.427C224.403 410.289 228.113 417.339 237.024 414.772C258.023 396.764 264.104 377.491 267.814 376.188C278.179 385.001 286.058 382.089 292.408 382.127C301.358 386.917 315.815 385.231 321.629 380.25C328.323 374.502 327.137 357.873 326.984 348.141Z" fill="#954A83"/>
<path d="M287.739 223.192C292.481 219.398 298.754 219.322 304.3 222.119C309.578 224.801 311.95 228.479 312.485 232.579C312.676 233.959 312.791 239.821 312.294 241.545C310.802 246.718 309.349 249.975 307.13 253.27C304.3 257.446 296.23 262.044 290.645 260.741C285.673 259.554 281.848 252.733 282.04 242.12C282.231 234.533 281.504 228.173 287.739 223.192Z" fill="#FFC9B6"/>
<path d="M301.584 268.941C314.435 262.657 318.451 256.105 327.325 263.921C332.833 268.787 333.789 288.635 333.024 296.873C332.45 303.08 335.701 340.975 336.352 344.385C332.068 349.749 316.424 355.956 304.873 355.918C293.284 355.841 286.629 352.316 282.422 348.178C282.384 339.289 284.793 335.304 284.372 330.016C283.149 314.69 281.007 302.352 280.509 292.888C279.821 280.091 286.629 276.259 301.584 268.941Z" fill="#FED03D"/>
<path d="M310.65 246.526C310.65 246.526 313.709 253.806 314.78 257.178C316.31 262.044 317.917 265.34 317.917 265.34C317.917 265.34 322.239 271.853 315.086 274.919C307.934 277.984 299.405 271.662 299.405 271.662C299.405 271.662 297.836 263.692 295.121 256.91C293.055 252.044 310.65 246.526 310.65 246.526Z" fill="#FFC9B6"/>
<path d="M276.497 228.173C276.497 231.966 282.081 237.522 288.66 233.997C290.572 239.667 297.801 243.078 297.801 243.078C297.801 243.078 297.495 248.403 303.767 252.733C308.548 256.028 314.783 257.178 314.783 257.178C314.783 257.178 325.339 243.346 321.362 235.223C328.132 227.789 322.203 216.026 312.297 217.866C313.75 210.7 304.073 209.053 300.937 214.609C293.135 210.547 286.938 217.176 286.938 220.356C283.305 216.065 276.497 221.276 276.497 228.173Z" fill="#7F3371"/>
<path d="M299.101 242.311C300.937 248.672 294.396 250.511 294.396 250.511L290.686 243.614C290.686 243.614 296.997 235.108 299.101 242.311Z" fill="#FFC9B6"/>
<path d="M321.055 334.309C321.055 334.309 312.449 343.121 304.379 343.773C296.27 344.424 293.21 343.734 293.21 343.734C293.21 343.734 298.488 339.673 304.608 338.523C310.651 337.412 321.055 334.309 321.055 334.309Z" fill="#F8B505"/>
<path d="M248.496 301.931C248.496 301.931 245.589 297.409 243.983 293.884C242.376 290.359 238.36 288.099 234.995 285.915C231.59 283.731 231.667 286.106 231.667 286.106C231.667 286.106 230.52 285.263 229.64 285.8C228.76 286.374 229.64 288.137 229.64 288.137C229.64 288.137 228.263 287.524 227.727 289.286C227.192 291.011 229.869 296.95 233.465 300.321C237.098 303.693 236.41 302.659 241.152 305.226C245.857 307.755 248.496 301.931 248.496 301.931Z" fill="#FFC9B6"/>
<path d="M242.797 312.774C242.797 312.774 237.901 305.494 238.474 302.697C239.01 300.168 242.452 299.096 245.512 297.333C247.463 297.716 250.102 299.479 251.785 303.042C253.468 306.567 242.797 312.774 242.797 312.774Z" fill="#F99E4B"/>
<path d="M268.729 276.681L263.297 272.389C263.297 272.389 265.363 263.768 270.526 263.309C274.198 264.88 275.04 266.604 276.531 267.485C270.679 270.052 268.729 276.681 268.729 276.681Z" fill="#F99E4B"/>
<path d="M269.88 331.013C268.656 331.358 265.749 332.661 261.388 329.021C254.313 323.12 245.707 317.449 243.986 315.188C240.926 311.165 240.237 308.253 245.363 304.268C251.979 299.134 260.203 304.383 267.967 310.361C271.983 300.552 280.283 283.003 282.272 280.781C290.151 272.045 294.244 273.731 298.107 278.405C301.549 282.62 303.461 291.854 303.614 299.9C303.806 307.908 302.543 314.269 298.336 316.185C294.167 318.062 294.091 317.909 289.769 318.139C288.736 319.595 278.638 328.522 269.88 331.013Z" fill="#F8B505"/>
<path d="M317.686 262.772C320.402 263.769 323.882 269.286 317.418 274.382C310.954 279.478 304.07 275.187 301.469 273.884C298.83 272.581 295.388 272.083 295.388 272.083C295.388 272.083 296.611 268.098 302.999 268.175C306.862 268.213 312.676 267.064 314.397 264.688C316.118 262.198 316.118 262.198 317.686 262.772Z" fill="#F8B505"/>
<path d="M364.697 271.163C365.959 270.282 366.724 269.401 365.921 268.749C364.238 267.332 359.61 265.224 357.391 264.266C357.124 264.113 356.818 263.998 356.512 263.883C356.321 263.807 356.206 263.73 356.206 263.73C352.419 262.351 348.212 262.81 343.813 265.339C328.476 274.229 314.936 305.954 314.936 339.136C314.936 365.268 317.002 378.065 321.591 381.629V381.667C321.591 381.667 327.176 384.962 329.738 385.843C331.421 383.238 332.415 381.245 332.415 381.245L331.268 380.249C336.355 376.916 340.409 371.245 343.813 369.291C348.327 366.685 354.064 369.214 361.714 361.857C369.401 354.501 372.308 339.136 372.308 305.916C372.346 290.321 369.44 278.405 364.697 271.163Z" fill="#FF5A72"/>
<path d="M350.467 268.75C365.843 259.899 379 276.183 379 309.403C379 342.585 376.055 357.949 368.405 365.344C360.717 372.701 355.018 370.172 350.505 372.778C345.992 375.383 340.255 384.541 332.605 386.073C324.917 387.568 321.628 375.805 321.628 342.623C321.628 309.365 335.129 277.639 350.467 268.75Z" fill="#E23D52"/>
<path d="M331.689 406.802C335.399 406.802 339.07 405.691 342.436 403.507C350.583 398.219 355.402 387.759 355.402 375.498V337.067C355.402 335.151 353.872 333.618 351.96 333.618C350.048 333.618 348.518 335.151 348.518 337.067V375.498C348.518 385.268 344.731 393.774 338.688 397.721C336.431 399.177 332.568 400.058 330.235 399.79C327.94 401.246 323.35 402.779 319.143 403.353C321.782 404.541 328.973 406.802 331.689 406.802Z" fill="#89CAEF"/>
<path d="M160.026 272.543L134.285 287.41C130.193 289.785 126.827 287.256 126.827 281.777V247.408C126.827 241.929 130.193 235.53 134.285 233.154L160.026 218.288C164.119 215.912 167.484 218.441 167.484 223.92V258.29C167.484 263.769 164.119 270.167 160.026 272.543Z" fill="#E23D52"/>
<path d="M131.459 279.938C131.306 280.283 129.508 287.755 129.508 287.755L138.879 293.234L143.086 282.008L131.459 279.938Z" fill="#E23D52"/>
<path d="M164.657 217.751L174.027 223.154L170.088 230.165L162.132 225.414L164.657 217.751Z" fill="#E23D52"/>
<path d="M169.284 277.869L143.543 292.736C139.45 295.111 136.085 292.583 136.085 287.103V252.734C136.085 247.255 139.45 240.856 143.543 238.48L169.284 223.614C173.376 221.238 176.742 223.767 176.742 229.246V263.616C176.742 269.095 173.415 275.494 169.284 277.869Z" fill="#F25763"/>
<path d="M159.186 273.655C166.683 266.949 171.349 254.612 169.59 246.067C167.83 237.523 160.334 236.028 152.799 242.734C145.302 249.439 140.636 261.777 142.395 270.321C144.193 278.827 151.69 280.322 159.186 273.655ZM150.275 263.309C149.548 259.784 151.46 254.688 154.558 251.93C157.656 249.171 160.755 249.784 161.481 253.309C162.208 256.834 160.296 261.93 157.197 264.689C154.099 267.448 151.001 266.835 150.275 263.309Z" fill="white"/>
<path d="M172.457 247.37L172.113 245.608L171.501 242.619L171.118 240.856L167.37 242.389L168.02 245.608L168.67 248.788L169.321 251.968L172.457 247.37Z" fill="white"/>
<path d="M140.904 275.494L140.522 273.732L139.91 270.743L139.565 269.019L142.702 264.383L143.352 267.601L144.002 270.782L144.652 273.962L140.904 275.494Z" fill="white"/>
<path d="M156.852 278.674L158.382 277.294L161.021 274.957L162.551 273.578L163.125 268.443L160.295 270.972L157.503 273.463L154.672 275.953L156.852 278.674Z" fill="white"/>
<path d="M149.469 242.772L150.998 241.392L153.638 239.055L155.168 237.676L157.348 240.396L154.517 242.887L151.725 245.416L148.895 247.906L149.469 242.772Z" fill="white"/>
<path d="M168.249 265.033L169.09 262.811L170.505 259.056L171.309 256.834L169.052 254.267L167.522 258.328L166.03 262.351L164.5 266.374L168.249 265.033Z" fill="white"/>
<path d="M140.673 259.555L141.515 257.332L142.93 253.577L143.771 251.355L147.52 249.976L145.99 254.037L144.498 258.06L142.968 262.083L140.673 259.555Z" fill="white"/>
<path d="M144.953 280.321L146.33 280.589L148.587 281.049L149.964 281.317L153.023 276.604L150.537 276.106L148.089 275.647L145.642 275.148L144.953 280.321Z" fill="white"/>
<path d="M162.052 235.07L163.391 235.339L165.686 235.76L167.062 236.028L166.374 241.239L163.926 240.741L161.478 240.243L158.992 239.745L162.052 235.07Z" fill="white"/>
<path d="M156.399 62.9159C156.399 48.3558 145.613 42.7616 132.341 50.4632C119.031 58.1647 108.283 76.2116 108.283 90.7717C108.283 92.4193 108.436 93.9519 108.704 95.3696C99.0272 103.684 91.8365 118.014 91.8365 130.199C91.8365 134.222 92.6397 137.556 94.0549 140.161C87.2468 151.656 82.657 169.013 82.657 185.834C82.657 207.482 90.2684 221.123 100.366 219.322C100.328 220.012 100.289 220.701 100.289 221.391C100.289 235.645 110.119 241.545 122.244 234.495C134.368 227.445 144.198 210.241 144.198 195.949C144.198 195.566 144.16 195.221 144.16 194.876C151.236 186.868 156.17 175.259 156.399 164.913H156.438V63.1458C156.399 63.0691 156.399 62.9925 156.399 62.9159Z" fill="#5C9FEA"/>
<path d="M122.207 224.379C114.289 228.977 107.825 225.644 107.825 216.984C107.825 216.601 107.864 216.218 107.902 215.835L108.437 207.29L102.509 208.363C96.4657 209.436 90.193 199.666 90.193 181.427C90.193 168.285 93.5971 154.031 98.8754 145.104L103.656 136.981L100.635 131.425C99.7933 129.854 99.3726 127.976 99.3726 125.831C99.3726 118.665 103.848 109.853 110.197 104.374L117.732 97.8981L116.049 88.8555C115.896 88.0126 115.819 87.2079 115.819 86.4033C115.819 77.5906 123.392 65.7893 132.304 60.6166C141.178 55.4822 148.674 58.4709 148.789 67.092C148.789 67.2453 148.789 67.4368 148.789 67.5901V77.7056V168.017L148.751 169.051C148.636 175.143 145.729 182.117 141.178 187.251L136.282 192.845L136.55 199.781C136.55 200.01 136.588 200.24 136.588 200.47V200.355C136.626 209.015 130.162 219.782 122.207 224.379Z" fill="#B3DAF4"/>
<path d="M126.987 124.184C126.873 124.222 126.796 124.299 126.681 124.337C119.912 127.977 116.354 119.509 116.201 119.164C115.857 118.321 116.201 116.942 116.966 116.061C117.731 115.179 118.611 115.103 118.955 115.946C118.994 116.022 121.9 122.881 126.758 120.275C130.162 118.436 132.113 113.915 132.572 110.237C133.107 105.984 131.883 101.232 126.681 101.922C117.387 103.148 112.262 98.0904 112.071 97.8988C111.535 97.3624 111.612 96.0214 112.262 94.9485C112.912 93.8757 113.868 93.4159 114.404 93.9523C114.442 93.9906 119.223 98.6652 127.676 97.554C134.255 96.6727 136.396 102.803 135.593 109.24C134.828 115.601 131.309 121.731 126.987 124.184Z" fill="#5C9FEA"/>
<path d="M105.72 218.096C105.567 218.173 105.452 218.211 105.299 218.249C104.496 218.403 104.037 217.56 104.228 216.372C104.42 215.261 109.392 189.167 119.528 183.612C125.265 180.431 128.095 184.34 128.325 189.282C128.554 194.493 126.145 200.241 122.588 202.923C121.746 203.536 120.981 203.229 120.866 202.157C120.752 201.122 121.325 199.743 122.167 199.13C124.462 197.405 125.38 193.804 125.265 191.237C125.112 188.171 123.505 185.413 119.451 187.673C119.413 187.711 119.375 187.711 119.336 187.75C112.873 191.466 108.321 209.207 107.135 215.759C106.982 216.755 106.37 217.713 105.72 218.096Z" fill="#5C9FEA"/>
<path d="M126.758 172.078C123.546 173.956 120.562 173.381 118.918 170.507C116.929 167.02 117.426 161.043 120.218 154.913C123.469 147.709 126.797 144.95 129.053 143.839C132.457 142.192 135.747 143.379 138.042 147.134C139.686 149.778 142.287 150.315 145.041 148.629C146.953 147.441 148.598 145.295 149.401 142.843C149.784 141.617 150.702 140.736 151.467 140.812C152.193 140.927 152.499 142 152.079 143.188C150.778 147.211 148.177 150.736 145.156 152.614C141.293 154.989 137.697 154.261 135.479 150.698C133.681 147.786 131.272 146.79 128.862 147.977C126.72 149.012 124.502 151.847 122.589 156.1C120.6 160.468 120.218 164.53 121.595 166.944C122.857 169.128 125.267 169.281 127.753 167.365C128.594 166.714 129.359 167.02 129.474 168.055C129.589 169.09 129.053 170.431 128.212 171.082C127.715 171.503 127.217 171.81 126.758 172.078Z" fill="#5C9FEA"/>
<path d="M107.632 154.108C107.096 154.415 106.522 154.645 105.987 154.759C102.736 155.488 100.938 152.116 100.862 151.962C100.479 151.196 100.747 149.817 101.474 148.859C102.2 147.901 103.118 147.748 103.539 148.514C103.539 148.514 104.801 150.851 106.79 150.391C107.785 150.162 108.779 149.319 109.888 147.748C111.954 144.874 112.795 142.46 112.451 140.659C111.839 137.594 108.167 136.598 105.528 137.785C102.047 139.395 99.1404 142.039 97.5723 143.456C96.5396 144.414 96.0041 144.874 95.4686 144.951C94.6654 145.066 94.2447 144.146 94.5124 142.958C94.7419 141.924 95.3921 141.004 96.0806 140.698C96.2718 140.544 96.5396 140.314 96.8838 140.008C98.605 138.437 101.856 135.487 105.834 133.647C109.62 131.923 114.478 133.302 115.434 138.054C115.817 140.008 115.817 144.223 111.533 150.277C110.232 152.077 108.932 153.342 107.632 154.108Z" fill="#5C9FEA"/>
<path d="M163.321 58.8923C163.321 44.3322 174.107 26.2853 187.379 18.5838C200.728 10.9206 211.475 16.4764 211.475 31.0749C211.475 32.7224 211.322 34.4084 211.055 36.1326C220.731 33.2589 227.922 39.2745 227.922 51.459C227.922 55.4822 227.119 59.7736 225.704 63.95C232.512 67.5901 237.102 79.583 237.102 96.4421C237.102 118.091 229.49 140.544 219.393 150.429C219.431 151.081 219.469 151.694 219.469 152.384C219.469 166.637 209.639 183.879 197.515 190.929C185.39 197.941 175.56 192.079 175.56 177.825C175.56 177.442 175.599 177.059 175.599 176.714C168.523 176.867 163.589 171.005 163.359 160.89H163.321V59.1222C163.359 59.0456 163.321 58.969 163.321 58.8923Z" fill="#5C9FEA"/>
<path d="M197.514 180.814C205.431 176.216 211.895 165.449 211.895 156.79C211.895 156.407 211.857 156.062 211.819 155.717L211.283 147.786L217.211 142C223.255 136.099 229.527 119.087 229.527 100.848C229.527 87.7061 226.123 77.399 220.845 74.5636L216.064 71.9965L219.086 62.9539C219.927 60.425 220.348 58.0494 220.348 55.8654C220.348 48.7003 215.873 45.0603 209.524 46.9378L201.989 49.1984L203.672 38.2017C203.825 37.1672 203.901 36.2859 203.901 35.4813C203.901 26.6686 196.328 23.6033 187.416 28.7759C178.543 33.9103 171.046 45.5201 170.931 54.3328C170.931 54.486 170.931 54.6393 170.931 54.8309V64.9463V155.257L170.97 156.253C171.084 162.192 173.991 165.794 178.543 165.718L183.438 165.603L183.171 172.844C183.171 173.074 183.132 173.342 183.132 173.572V173.457C183.132 182.079 189.596 185.412 197.514 180.814Z" fill="#B3DAF4"/>
<path d="M192.732 86.1733C192.847 86.1349 192.924 86.0583 193.038 85.9817C199.808 81.7669 203.365 69.1992 203.518 68.6628C203.863 67.4367 203.518 66.4405 202.753 66.4405C201.989 66.4405 201.109 67.3984 200.765 68.6245C200.726 68.7394 197.819 78.9698 192.962 81.9585C189.558 84.0659 187.607 81.8052 187.148 78.6633C186.613 75.0233 187.837 68.8544 193.038 63.5285C202.333 54.0261 207.458 43.0294 207.649 42.5696C208.185 41.4201 208.108 40.194 207.458 39.8108C206.808 39.466 205.852 40.1173 205.316 41.3051C205.278 41.4201 200.497 51.5738 192.044 60.2333C185.465 66.9769 183.323 75.5597 184.127 81.0772C184.93 86.633 188.449 88.6638 192.732 86.1733Z" fill="#5C9FEA"/>
<path d="M214.039 155.449C214.192 155.372 214.307 155.257 214.46 155.143C215.263 154.376 215.722 152.997 215.531 152.039C215.34 151.158 210.368 130.774 200.232 136.981C194.495 140.429 191.664 147.633 191.435 152.805C191.205 158.284 193.615 161.235 197.172 159.855C198.013 159.511 198.778 158.323 198.893 157.135C199.008 155.947 198.434 155.296 197.593 155.602C195.298 156.522 194.38 153.993 194.495 151.311C194.648 148.092 196.254 143.456 200.308 141.004C200.347 140.966 200.385 140.966 200.423 140.927C206.887 137.211 211.438 149.663 212.624 154.798C212.739 155.602 213.351 155.832 214.039 155.449Z" fill="#5C9FEA"/>
<path d="M193 133.762C196.213 131.885 199.196 127.9 200.841 123.11C202.83 117.325 202.333 111.922 199.541 109.01C196.289 105.6 192.962 106.634 190.705 108.167C187.301 110.466 184.012 115.447 181.717 121.884C180.072 126.406 177.471 129.969 174.718 131.502C172.805 132.536 171.161 132.268 170.357 130.735C169.975 129.969 169.057 130.122 168.292 131.08C167.565 132.038 167.259 133.417 167.68 134.184C168.98 136.674 171.581 137.211 174.603 135.563C178.466 133.456 182.061 128.59 184.28 122.459C186.077 117.478 188.487 113.685 190.897 112.075C193.038 110.658 195.257 110.926 197.169 112.918C199.158 114.987 199.541 118.627 198.164 122.612C196.901 126.252 194.492 129.203 192.006 130.122C191.164 130.429 190.399 131.655 190.285 132.804C190.17 133.992 190.744 134.682 191.547 134.375C192.044 134.26 192.503 134.03 193 133.762Z" fill="#5C9FEA"/>
<path d="M212.086 93.6837C212.621 93.3771 213.195 92.9557 213.73 92.4575C216.981 89.3923 218.779 83.9514 218.855 83.7215C219.238 82.4954 218.97 81.4608 218.244 81.3459C217.517 81.2309 216.599 82.1505 216.178 83.3766C216.178 83.415 214.916 87.1699 212.927 89.0474C211.933 89.967 210.938 90.2735 209.829 90.0053C207.764 89.5072 206.922 88.1278 207.266 85.9055C207.878 82.1505 211.55 76.9012 214.189 75.0621C217.67 72.6481 220.577 71.9201 222.145 71.537C223.178 71.2688 223.713 71.1538 224.248 70.5791C225.052 69.7744 225.472 68.3567 225.205 67.4755C224.975 66.7092 224.325 66.5176 223.636 66.9774C223.445 67.054 223.177 67.0923 222.833 67.169C221.112 67.5904 217.861 68.3951 213.883 71.1538C210.097 73.7976 205.239 80.8095 204.283 86.6718C203.9 89.0857 203.9 93.3005 208.184 94.3734C209.523 94.6416 210.823 94.4117 212.086 93.6837ZM223.292 67.2073C223.254 67.2073 223.254 67.2073 223.292 67.2073C223.254 67.2073 223.254 67.2073 223.292 67.2073Z" fill="#5C9FEA"/>
<path d="M242.836 159.165C242.836 165.181 239.202 172.154 234.689 174.722C230.214 177.327 226.542 174.568 226.542 168.553C226.542 162.537 230.176 155.564 234.689 152.996C239.202 150.391 242.836 153.15 242.836 159.165Z" fill="#E23D52"/>
<path d="M240.809 160.736C240.809 164.644 238.437 169.127 235.53 170.813C232.624 172.499 230.252 170.698 230.252 166.828C230.252 162.92 232.624 158.437 235.53 156.751C238.475 155.065 240.809 156.866 240.809 160.736Z" fill="white"/>
<path d="M103.27 248.135C103.27 254.151 99.6359 261.124 95.1227 263.691C90.6477 266.297 86.9758 263.538 86.9758 257.522C86.9758 251.507 90.6094 244.533 95.1227 241.966C99.5977 239.361 103.27 242.119 103.27 248.135Z" fill="#E23D52"/>
<path d="M101.242 249.706C101.242 253.614 98.8708 258.097 95.964 259.783C93.0571 261.469 90.6857 259.668 90.6857 255.798C90.6857 251.89 93.0571 247.407 95.964 245.721C98.9091 244.035 101.242 245.836 101.242 249.706Z" fill="white"/>
<path d="M7.61244 243.46L65.6347 209.896C69.8038 207.482 73.2461 200.93 73.2461 195.335V142.498C73.2461 136.903 69.842 134.336 65.6347 136.75L7.61244 170.315C3.4434 172.729 0.00108337 179.281 0.00108337 184.875V237.713C0.00108337 243.269 3.4434 245.874 7.61244 243.46Z" fill="#FF5A72"/>
<path d="M7.61244 243.46L65.6347 209.896C69.8038 207.482 73.2461 200.93 73.2461 195.335V142.498C73.2461 136.903 69.842 134.336 65.6347 136.75L7.61244 170.315C3.4434 172.729 0.00108337 179.281 0.00108337 184.875V237.713C0.00108337 243.269 3.4434 245.874 7.61244 243.46Z" fill="#954A83"/>
<path d="M65.6329 207.098C68.6545 205.336 71.1406 200.623 71.1406 196.561V143.724C71.1406 139.662 68.6545 137.785 65.6329 139.547L7.6106 173.112C4.589 174.875 2.10287 179.587 2.10287 183.649V236.487C2.10287 240.548 4.589 242.426 7.6106 240.663L65.6329 207.098Z" fill="#CFE9FF"/>
<path d="M54.0085 207.903L62.8438 202.769V147.096L54.0085 152.192V207.903Z" fill="white"/>
<path d="M39.5123 216.256L48.3477 211.16V170.392L39.5123 175.488V216.256Z" fill="white"/>
<path d="M24.6725 224.839L33.5078 219.743V192.04L24.6725 197.174V224.839Z" fill="white"/>
<path d="M10.0202 233.345L18.8555 228.211V208.746L10.0202 213.842V233.345Z" fill="white"/>
<path d="M8.4165 236.142L65.5209 203.114C66.3623 202.616 67.0508 201.313 67.0508 200.163C67.0508 199.014 66.3623 198.516 65.5209 198.976L8.4165 232.004C7.57504 232.502 6.88657 233.805 6.88657 234.954C6.88657 236.142 7.57504 236.64 8.4165 236.142Z" fill="#954A83"/>
<path d="M255.229 112.381L288.351 93.2234C292.214 91.0011 295.312 85.0238 295.312 79.8895V6.13102C295.312 0.99667 292.176 -1.37893 288.351 0.843406L255.229 20.0014C251.365 22.2238 248.267 28.2011 248.267 33.3354V107.094C248.267 112.228 251.404 114.604 255.229 112.381Z" fill="#F48C45"/>
<path d="M288.35 86.48C289.421 85.867 290.301 84.1811 290.301 82.7634V9.00496C290.301 7.58726 289.421 6.93589 288.35 7.54895L255.227 26.707C254.156 27.32 253.277 28.9676 253.277 30.4236V104.182C253.277 105.6 254.156 106.251 255.227 105.638L288.35 86.48Z" fill="#FED03D"/>
<path d="M264.063 31.1515L279.553 22.1855C280.739 21.4958 281.695 19.6566 281.695 18.0857C281.695 16.5147 280.739 15.7867 279.553 16.4764L264.063 25.4424C262.877 26.1321 261.921 27.9712 261.921 29.5422C261.921 31.0748 262.877 31.8028 264.063 31.1515Z" fill="#954A83"/>
<path d="M269.723 40.8839L285.214 31.9179C286.399 31.2282 287.355 29.3891 287.355 27.8181C287.355 26.2472 286.399 25.5191 285.214 26.2088L269.723 35.1748C268.537 35.8645 267.581 37.7037 267.581 39.2746C267.581 40.8073 268.537 41.5736 269.723 40.8839Z" fill="white"/>
<path d="M257.981 47.666L263.565 44.4091C264.751 43.7195 265.707 41.8803 265.707 40.3093C265.707 38.7384 264.751 38.0104 263.565 38.7L257.981 41.9569C256.795 42.6466 255.839 44.4858 255.839 46.0567C255.839 47.6277 256.795 48.3557 257.981 47.666Z" fill="white"/>
<path d="M269.723 50.8839L285.214 41.9179C286.399 41.2282 287.355 39.3891 287.355 37.8181C287.355 36.2472 286.399 35.5191 285.214 36.2088L269.723 45.1748C268.537 45.8645 267.581 47.7037 267.581 49.2746C267.581 50.8073 268.537 51.5736 269.723 50.8839Z" fill="white"/>
<path d="M257.981 67.6668L285.214 51.9189C286.399 51.2292 287.355 49.39 287.355 47.8191C287.355 46.2481 286.399 45.5201 285.214 46.2098L257.981 61.9577C256.795 62.6474 255.839 64.4866 255.839 66.0575C255.839 67.6285 256.795 68.3565 257.981 67.6668Z" fill="white"/>
<path d="M257.981 87.6678L285.214 71.9199C286.399 71.2302 287.355 69.391 287.355 67.8201C287.355 66.2491 286.399 65.5211 285.214 66.2108L257.981 81.9587C256.795 82.6484 255.839 84.4875 255.839 86.0585C255.839 87.6295 256.795 88.3575 257.981 87.6678Z" fill="white"/>
<path d="M257.981 57.666L263.565 54.4091C264.751 53.7195 265.707 51.8803 265.707 50.3093C265.707 48.7384 264.751 48.0104 263.565 48.7L257.981 51.9569C256.795 52.6466 255.839 54.4858 255.839 56.0567C255.839 57.6277 256.795 58.3557 257.981 57.666Z" fill="white"/>
<path d="M269.723 90.8858L285.214 81.9199C286.399 81.2302 287.355 79.391 287.355 77.8201C287.355 76.2491 286.399 75.5211 285.214 76.2108L269.723 85.1768C268.537 85.8664 267.581 87.7056 267.581 89.2766C267.581 90.8092 268.537 91.5755 269.723 90.8858Z" fill="white"/>
<path d="M257.981 97.668L263.565 94.4111C264.751 93.7214 265.707 91.8822 265.707 90.3113C265.707 88.7403 264.751 88.0123 263.565 88.702L257.981 91.9589C256.795 92.6486 255.839 94.4877 255.839 96.0587C255.839 97.6296 256.795 98.3576 257.981 97.668Z" fill="white"/>
<path d="M273.702 68.5859L258.211 77.5519C257.026 78.2415 256.07 77.5135 256.07 75.9426C256.07 74.3716 257.026 72.4941 258.211 71.8428L273.702 62.8768C274.888 62.1871 275.844 62.9151 275.844 64.4861C275.844 66.057 274.849 67.8962 273.702 68.5859Z" fill="white"/>
<path d="M285.444 61.8046L279.86 65.0615C278.674 65.7512 277.718 65.0232 277.718 63.4522C277.718 61.8813 278.674 60.0038 279.86 59.3524L285.444 56.0956C286.63 55.4059 287.586 56.1339 287.586 57.7048C287.586 59.2375 286.591 61.115 285.444 61.8046Z" fill="white"/>
</svg>
